<svg width="353" height="203" viewBox="0 0 353 203" fill="none" xmlns="http://www.w3.org/2000/svg">
<g filter="url(#filter0_i_2010_997)">
<g clip-path="url(#clip0_2010_997)">
<rect width="353" height="203" rx="20" fill="#E7DDB9"/>
<path d="M162.691 43.3083C161.235 42.3853 159.883 41.3052 158.659 40.087C157.75 39.1676 156.73 38.366 155.623 37.7009C152.055 35.6207 148.298 33.887 144.404 32.523C143.147 32.1204 141.912 31.6505 140.704 31.1152C139.989 30.7873 139.345 30.3188 138.812 29.7372C137.532 28.3175 137.792 26.5219 139.404 25.481C140.014 25.1027 140.663 24.7946 141.341 24.5623C145.192 23.1306 149.266 22.6146 153.327 22.203C155.401 21.9942 157.474 22.1374 159.548 22.033C163.168 21.8859 166.791 22.231 170.319 23.0591C174.108 23.9002 177.829 24.8964 181.203 26.9365C182.663 27.8313 184.076 28.7052 185.004 30.1965C185.151 30.4 185.322 30.5852 185.513 30.7483C186.514 31.6948 187.227 32.9081 187.569 34.247C188.535 38.0648 187.865 41.6082 185.688 44.8712C185.481 45.1656 185.251 45.4429 185.001 45.7004C184.168 46.662 183.041 47.3178 181.798 47.5645C180.643 47.7823 179.458 47.8628 178.288 48C172.766 47.8661 167.381 46.2461 162.691 43.3083ZM150.622 29.0751C151.562 29.7276 152.542 30.3174 153.558 30.8408C154.983 31.5059 156.473 32.0339 157.945 32.6035C160.372 33.5371 162.57 34.8823 164.702 36.3527C166.062 37.2893 167.416 38.2348 168.802 39.1296C171.495 40.8655 174.505 41.6171 177.651 41.8319C178.403 41.8672 179.155 41.7744 179.876 41.5575C182.45 40.8297 183.351 38.0021 181.653 35.8904C181.089 35.2385 180.435 34.6719 179.71 34.2082C176.265 31.839 172.312 30.3253 168.174 29.7909C164.057 29.257 159.948 28.6366 155.824 28.1475C154.195 27.9536 152.533 28.0073 150.889 27.9715C150.507 28.0063 150.128 28.0731 149.757 28.1713C150.015 28.501 150.305 28.8037 150.622 29.0751Z" fill="#DED3AC"/>
<path d="M-18.7638 86.416C-18.3169 92.0021 -15.8553 97.2347 -11.8374 101.139C-6.72493 106.064 0.636358 108.403 7.72012 107.772C14.8039 107.142 21.4979 103.741 26.5241 98.729C28.2927 96.9843 29.9618 94.6132 29.3534 92.2013C28.5462 89.0489 24.3811 88.0778 21.2673 88.9947C18.1535 89.9116 15.5053 92.0437 12.3862 92.9335C15.9655 90.0078 18.8461 85.7855 18.8045 81.1627C18.7629 76.5399 14.928 71.8741 10.3126 72.1162C6.99728 72.2966 4.24263 74.7685 2.29162 77.4606C0.340606 80.1527 -1.14287 83.214 -3.51822 85.5425C-1.70912 81.7131 0.0701324 77.7105 0.106873 73.476C0.143614 69.2415 -2.03181 64.7044 -6.01254 63.2698C-6.9286 62.8652 -7.96748 62.8388 -8.90318 63.1964C-9.7653 63.6014 -10.3333 64.4407 -10.8241 65.2617C-14.9665 71.9657 -19.3077 78.1293 -18.7638 86.416Z" fill="#DED3AC"/>
<path d="M377.246 202.93C377.246 205.057 377.355 207.19 377.246 209.312C377.018 212.935 375.59 214.364 371.692 214.913C370.442 215.029 369.184 215.029 367.934 214.913C366.429 214.83 364.929 214.69 363.434 214.53C362.809 214.474 362.194 214.342 361.602 214.136C360.507 213.738 359.816 212.992 359.853 211.745C359.853 210.741 359.853 209.742 359.92 208.738C360.086 204.804 360.341 200.87 360.408 196.931C360.486 192.106 360.574 187.277 360.356 182.437C359.973 175.492 358.884 168.604 357.107 161.877C356.37 158.974 355.747 156.054 354.46 153.29C352.301 148.691 349.31 144.528 345.636 141.012C341.146 136.564 335.276 133.767 328.985 133.077C318.64 131.871 309.033 134.112 300.562 140.422C294.834 144.652 290.15 150.13 286.864 156.437C281.738 166.182 277.899 176.548 275.445 187.277C274.407 191.842 273.483 196.434 272.601 201.03C272.222 202.992 272.082 205 271.802 206.983C271.625 208.194 271.054 208.81 269.845 208.877C267.026 209.033 264.198 209.172 261.41 208.546C260.03 208.23 259.573 207.754 259.386 206.439C258.779 202.096 258.317 197.723 258.587 193.344C258.805 189.72 259.246 186.097 259.786 182.53C260.305 179.135 260.969 175.76 261.753 172.416C263.04 166.898 265.469 161.81 268.023 156.789C273.945 145.153 282.504 135.805 293.14 128.32C298.367 124.624 304.399 122.219 310.74 121.301C315.967 120.52 321.173 119.816 326.462 120.043C338.125 120.561 347.961 124.94 355.752 133.719C362.209 140.997 366.616 149.439 370.047 158.446C372.238 164.037 373.93 169.81 375.102 175.698C375.865 179.684 376.364 183.721 376.852 187.753C377.179 190.481 377.345 193.24 377.464 195.989C377.563 198.297 377.464 200.616 377.464 202.93H377.246Z" fill="#DED3AC"/>
<path d="M277.543 201.138C277.259 194.463 278.726 187.86 280.265 181.272C281.515 175.716 283.489 170.349 286.137 165.31C291.043 156.133 297.793 148.789 307.265 144.216C320.176 138.001 334.848 141.041 343.896 151.197C347.081 154.831 349.408 159.138 350.702 163.798C353.051 171.672 353.936 179.913 353.316 188.108C352.856 193.976 352.283 199.833 351.766 205.691C351.642 207.063 351.544 208.441 351.343 209.798C351.141 211.155 350.341 211.838 348.936 211.942C345.538 212.19 342.222 211.59 338.871 211.124C337.425 210.916 336.738 209.875 336.48 208.565C336.256 207.396 336.114 206.212 336.056 205.023C335.658 197.829 335.39 190.625 334.879 183.442C334.512 178.195 333.81 172.975 331.418 168.169C330.355 166.035 329.203 163.953 327.416 162.312C323.424 158.64 318.884 158.236 313.989 160.131C310.391 161.513 307.392 164.118 305.514 167.491C301.757 173.922 298.955 180.867 297.194 188.108C295.913 193.582 295.009 199.145 293.904 204.655C293.732 205.766 293.425 206.851 292.99 207.887C292.653 208.611 292.066 209.189 291.337 209.513C288.007 210.594 284.5 211.018 281.009 210.761C280.245 210.761 279.507 210.487 278.928 209.988C278.35 209.489 277.968 208.799 277.853 208.042C277.69 207.31 277.594 206.565 277.564 205.815C277.512 204.308 277.543 202.811 277.543 201.138Z" fill="#DED3AC"/>
<path d="M317.996 180.18C316.74 180.751 316.336 181.832 315.848 182.809C313.815 186.895 312.533 191.243 311.325 195.616C310.344 199.146 309.364 202.676 308.337 206.19C307.818 207.96 307.175 208.428 305.4 208.475C304.018 208.545 302.633 208.545 301.25 208.475C299.29 208.336 298.19 206.89 298.589 204.986C300.213 197.196 302.08 189.473 305.131 182.084C306.874 177.859 308.975 173.851 311.978 170.357C312.82 169.355 313.812 168.487 314.92 167.785C317.311 166.334 319.651 167.116 321.861 168.351C324.89 170.059 326.69 172.786 327.997 175.894C329.211 178.796 329.694 181.878 330.072 184.955C331.063 192.869 330.233 200.721 328.884 208.531C328.542 210.502 327.847 211.104 325.834 210.986C323.956 210.873 322.094 210.595 320.232 210.358C319.691 210.314 319.183 210.085 318.794 209.709C318.406 209.333 318.162 208.835 318.105 208.3C317.97 207.501 317.939 206.688 318.011 205.881C318.333 202.352 318.743 198.832 319.049 195.302C319.355 191.773 319.666 188.366 319.786 184.893C319.854 184.025 319.729 183.153 319.42 182.339C319.111 181.524 318.624 180.787 317.996 180.18Z" fill="#DED3AC"/>
<path d="M21.7991 184.673C21.6643 184.462 21.4898 184.279 21.2854 184.135C19.7569 182.817 18.2491 181.474 16.6833 180.206C15.2707 179.043 13.9341 177.789 12.6817 176.452C12.314 176.076 11.9774 175.67 11.6752 175.239C11.3707 174.825 11.1627 174.348 11.0666 173.843C10.9705 173.337 10.9887 172.816 11.1201 172.319C11.2432 171.806 11.44 171.315 11.7041 170.859C12.1184 170.175 12.4788 169.458 12.8723 168.774C13.4872 167.723 14.2152 166.744 15.0429 165.854C15.448 165.477 15.9365 165.202 16.4679 165.053C16.561 165.027 16.6586 165.019 16.7546 165.031C16.8507 165.043 16.9434 165.075 17.0271 165.124C17.2743 165.25 17.4973 165.42 17.6857 165.625C18.4106 166.313 19.0196 167.101 19.6741 167.852C20.3286 168.603 20.9168 169.333 21.5713 170.054C22.7725 171.389 24.0567 172.636 25.2207 174.021C25.2381 174.042 25.2592 174.061 25.2828 174.075C25.3582 174.097 25.4364 174.107 25.5148 174.104C25.5355 174.104 25.5686 174.008 25.5604 173.958C25.5487 173.849 25.5265 173.742 25.4941 173.637C25.1213 172.24 24.6283 170.884 24.1685 169.516C23.1854 166.566 22.1954 163.62 21.1985 160.678C20.9442 159.915 20.7665 159.128 20.6682 158.33C20.6082 157.775 20.6999 157.214 20.9333 156.707C21.1575 156.04 21.6297 155.487 22.2506 155.164C22.3282 155.134 22.3987 155.089 22.4577 155.03C23.0418 154.284 23.8993 153.95 24.6946 153.52C25.0343 153.341 25.3822 153.183 25.7219 153.003C26.527 152.579 27.3895 152.275 28.2819 152.102C29.1498 151.922 30.0501 151.981 30.8874 152.273C32.0397 152.69 33.015 153.493 33.6504 154.546C34.3515 155.609 34.9088 156.76 35.3073 157.971C35.5683 158.805 35.7796 159.639 35.966 160.473C36.2932 161.933 36.5128 163.414 36.7075 164.899C36.9353 166.626 37.0471 168.365 37.391 170.075C37.6229 170.075 37.6726 169.892 37.7348 169.75C38.149 168.786 38.6047 167.831 38.9775 166.855C39.4828 165.566 39.9509 164.265 40.419 162.964C40.584 162.496 40.8156 162.055 41.1067 161.654C41.2334 161.475 41.3965 161.326 41.5851 161.216C41.7737 161.106 41.9834 161.038 42.2002 161.016C42.6126 160.955 43.0334 161.003 43.4222 161.153C44.2432 161.479 45.0381 161.868 45.8 162.317C46.2556 162.58 46.703 162.855 47.1462 163.151C47.8663 163.554 48.4252 164.195 48.7274 164.967C49.0296 165.738 49.0564 166.591 48.8032 167.381C48.6872 167.798 48.5961 168.244 48.4635 168.665C48.1201 169.717 47.6935 170.739 47.1877 171.723C46.5829 172.936 45.9242 174.129 45.2863 175.326C45.2019 175.435 45.1527 175.568 45.1455 175.706C45.4165 175.663 45.6801 175.581 45.9284 175.464L49.8761 173.049C49.9179 173.012 49.9637 172.98 50.0127 172.953C50.5237 172.745 50.9936 172.447 51.4004 172.073C51.5267 171.974 51.6661 171.894 51.8147 171.835C52.1006 171.69 52.4261 171.642 52.7412 171.701C53.0563 171.76 53.3435 171.921 53.5586 172.16C53.8764 172.501 54.1544 172.878 54.3871 173.283C55.2026 174.795 55.9087 176.364 56.4997 177.979C56.9554 179.264 56.5784 180.373 55.8783 181.433C55.3274 182.267 54.5196 182.884 53.9521 183.706C53.3432 184.002 53.0201 184.644 52.4236 184.957C52.101 185.169 51.7912 185.4 51.4957 185.649C51.2325 185.845 50.9556 186.02 50.6672 186.175C50.4579 186.247 50.2834 186.396 50.1784 186.592C50.0914 186.771 49.847 186.867 49.6772 187.009C49.6619 187.03 49.6516 187.054 49.6473 187.079C49.643 187.105 49.6447 187.131 49.6523 187.155C49.6643 187.179 49.682 187.199 49.7037 187.213C49.7255 187.228 49.7506 187.236 49.7766 187.239C50.2123 187.187 50.6414 187.089 51.0566 186.947C52.2993 186.588 53.542 186.233 54.7847 185.862C55.375 185.715 55.9859 185.671 56.5908 185.733C56.7842 185.74 56.973 185.794 57.1406 185.892C57.3082 185.989 57.4494 186.126 57.5518 186.292C57.9084 186.821 58.1965 187.395 58.4093 187.998C58.8344 189.287 59.1572 190.607 59.3745 191.948C59.5692 193.04 59.71 194.137 59.8343 195.239C59.85 195.348 59.8807 195.455 59.9254 195.556C60.0249 195.846 60.0249 196.162 59.9254 196.452C59.7256 197.265 59.3186 198.011 58.7448 198.617C58.0213 199.387 57.1827 200.039 56.2594 200.548C54.06 201.771 51.766 202.813 49.3997 203.664C46.8148 204.615 44.201 205.507 41.6038 206.425C41.4712 206.467 41.3386 206.5 41.2102 206.554C41.1624 206.566 41.1176 206.587 41.079 206.618C41.0403 206.648 41.0088 206.687 40.9867 206.731C40.9646 206.775 40.9524 206.824 40.9509 206.873C40.9494 206.923 40.9588 206.972 40.9782 207.017C41.1149 207.526 41.2682 208.031 41.4132 208.536C42.0925 210.91 42.7705 213.284 43.4471 215.655C43.9276 217.324 44.3998 219.021 44.8886 220.698C45.7503 223.651 46.6243 226.604 47.49 229.557C47.5315 229.691 47.5605 229.828 47.5978 229.974C47.7552 230.504 47.867 231.021 47.2166 231.317C46.9225 231.96 46.3675 232.026 45.7585 231.993C45.3733 231.993 44.9839 231.993 44.5987 231.993C44.2649 231.998 43.9368 231.906 43.6538 231.728C43.3709 231.549 43.1452 231.292 43.0039 230.988C42.8246 230.645 42.6668 230.291 42.5316 229.928C42.0152 228.318 41.5099 226.704 41.0155 225.086C40.6469 223.864 40.2989 222.638 39.9551 221.411C39.4 219.434 38.9153 217.441 38.4638 215.443C37.9916 213.363 37.518 211.277 37.043 209.186C36.9767 208.89 36.956 208.581 36.8773 208.289C36.7986 207.997 36.695 207.935 36.3926 208.018C35.5973 208.235 34.802 208.473 34.0066 208.694C32.5253 209.127 31.0206 209.474 29.4998 209.733C28.0872 209.958 26.6829 210.229 25.2455 210.337C24.4171 210.4 23.5886 210.492 22.785 210.571C21.7935 210.644 20.7981 210.644 19.8066 210.571C19.1146 210.583 18.4285 210.441 17.7976 210.154C17.0206 209.741 16.2805 209.261 15.5855 208.719C15.1005 208.302 14.7273 207.768 14.5002 207.167C13.9114 205.759 13.5036 204.28 13.2865 202.767C13.1291 201.729 12.9841 200.682 12.8433 199.643C12.7646 199.084 12.9593 198.542 12.9759 197.975C12.9835 197.892 13.0202 197.815 13.0794 197.758C13.5765 197.341 14.0487 196.844 14.7612 196.786C14.8441 196.786 14.9269 196.786 15.0098 196.786C16.2525 196.753 17.4952 196.607 18.7089 196.461C18.9005 196.446 19.093 196.446 19.2847 196.461C20.254 196.506 21.2067 196.281 22.1843 196.256C22.595 196.212 23.0021 196.138 23.4022 196.035C22.8637 195.952 22.5033 195.881 22.1388 195.839C21.3724 195.756 20.5978 195.714 19.8398 195.597C19.0817 195.48 18.1828 195.414 17.375 195.326C16.617 195.247 15.8589 195.109 15.0843 195.097C14.0364 195.063 12.998 194.885 11.9983 194.567C10.7555 194.196 10.0638 193.132 10.0016 191.789C9.98831 191.088 10.0564 190.388 10.2046 189.704C10.5119 188.124 10.9005 186.562 11.3686 185.024C11.4515 184.732 11.5923 184.457 11.6959 184.169C11.9095 183.629 12.2958 183.177 12.7936 182.884C13.1177 182.652 13.4946 182.505 13.8896 182.457C14.2847 182.408 14.6855 182.461 15.0553 182.609C16.6833 183.13 18.3236 183.61 19.9226 184.223C20.2084 184.331 20.4942 184.436 20.7511 184.569C21.0447 184.726 21.376 184.799 21.708 184.778C21.7452 184.844 21.7784 184.911 21.8612 184.819L21.7991 184.673Z" fill="#DED3AC"/>
<path d="M41.8418 21.6563C39.3925 23.4117 37.1663 25.6399 35.9337 28.4387C34.7011 31.2375 34.6001 34.6558 36.1675 37.2698C37.6073 39.6773 40.1841 41.074 42.6706 42.2914C50.5621 46.1515 58.7638 49.3098 67.1849 51.7312C71.2334 52.8942 75.7707 53.8398 79.4898 51.8236C83.209 49.8073 85.0366 45.2749 84.9994 40.9925C84.9357 33.3841 80.6003 20.7542 72.8858 18.026C62.9717 14.5371 50.5179 15.4338 41.8418 21.6563Z" fill="#DED3AC"/>
<path d="M98.5776 119.89C100.807 117.593 103.549 117.407 103.549 114.373C103.549 111.338 98.4409 111.748 97.8899 107.75C97.3388 103.751 99.6838 100.713 102.862 101.4C106.039 102.087 109.615 101.677 111.148 98.7795C112.681 95.882 115.572 92.2931 119.993 93.121C124.414 93.9489 124.281 99.0569 126.833 98.7795C129.385 98.5022 134.494 95.1907 137.671 97.9517C140.849 100.713 135.31 107.75 137.042 110.233C138.773 112.717 146.645 116.302 145.958 121.824C145.27 127.345 140.431 131.344 134.771 131.481C129.112 131.617 127.504 134.242 124.646 138.104C121.787 141.966 115.001 143.613 111.148 142.098C107.295 140.583 108.247 134.37 104.664 132.437C101.08 130.504 96.4771 130.106 96.0628 126.228C95.6485 122.349 97.3761 121.132 98.5776 119.89Z" fill="#DED3AC"/>
<path d="M117.293 107.36C113.087 107.36 110.042 109.741 108.799 114.294C107.556 118.847 113.771 127.954 122.057 126.712C130.343 125.47 131.897 118.433 130.757 113.983C129.618 109.534 126.097 107.36 117.293 107.36Z" fill="#DED3AC"/>
<path d="M237.734 62.4159C237.953 62 238.064 61.536 238.059 61.066C238.053 60.596 237.93 60.1349 237.701 59.7245C237.209 58.6393 236.635 57.5939 235.982 56.5975C234.985 55.1141 233.885 53.7211 232.818 52.2624C231.463 50.4078 230.562 48.2598 230.188 45.992C229.766 43.4883 230.334 40.9185 231.771 38.8264C233.207 36.7342 235.4 35.284 237.886 34.7825C241.168 34.1169 244.041 34.9633 246.326 37.3466C247.4 38.4432 248.31 39.6886 249.03 41.0447C250.212 43.3335 251.151 45.7496 252.202 48.1082C252.641 49.0861 252.87 50.1956 254.06 51.0215C254.237 50.0887 254.409 49.2998 254.528 48.5026C254.848 46.3906 255 44.2374 255.484 42.1665C257.052 35.4564 260.974 30.7351 267.666 28.7381C272.619 27.2589 277.321 27.9451 281.42 31.3227C284.817 34.1292 285.933 38.2752 284.227 42.3432C283.575 43.8532 282.729 45.2718 281.711 46.5632C278.991 50.1093 275.557 52.887 271.864 55.3524C270.502 56.2605 269.209 57.2755 267.929 58.2904C267.193 58.8877 266.627 59.6686 266.288 60.5545C267.081 60.4232 267.866 60.2462 268.639 60.0244C270.554 59.3396 272.456 58.6191 274.346 57.8631C277.674 56.5399 281.034 55.3442 284.604 54.8963C287.915 54.4854 290.931 55.147 293.495 57.3864C295.752 59.3547 296.569 62.346 295.596 64.9512C294.966 66.5416 293.772 67.8436 292.244 68.6082C290.179 69.7041 287.958 70.4747 285.658 70.8929C281.408 71.7516 277.091 71.9776 272.771 72.0804C270.834 72.1255 268.893 72.1132 266.961 72.1749C266.215 72.184 265.474 72.2918 264.757 72.4954C263.604 72.8529 263.346 73.8473 264.228 74.6608C264.862 75.2133 265.586 75.6513 266.37 75.9552C267.564 76.4401 268.832 76.7154 270.034 77.1879C271.943 77.8884 273.81 78.6978 275.626 79.6122C279.135 81.5024 281.637 84.2966 282.639 88.2659C283.668 92.3421 282.04 96.2868 278.375 98.3249C275.093 100.157 271.597 100.441 267.999 99.3973C263.621 98.1276 260.039 95.6211 257.08 92.1983C255.78 90.6943 254.618 89.0713 253.273 87.6085C251.927 86.1456 250.487 84.7855 249.009 83.4665C248.423 83.0078 247.76 82.6559 247.052 82.427C246.523 82.2065 245.944 82.1321 245.376 82.2116C244.808 82.2911 244.272 82.5215 243.823 82.8789C241.86 84.328 240.152 86.0944 238.768 88.1056C237.302 90.2341 235.811 92.3462 234.296 94.4418C233.443 95.675 232.308 96.6854 230.984 97.388C228.276 98.7563 225.86 97.5277 225.33 94.5322C225.095 93.3492 225.261 92.1214 225.802 91.0436C226.623 89.4534 227.505 87.9043 228.445 86.3839C229.224 85.1184 230.156 83.9473 230.952 82.6858C231.186 82.2621 231.309 81.7855 231.309 81.3011C231.322 80.4268 231.154 79.5592 230.815 78.7535C230.476 77.9478 229.973 77.2215 229.339 76.6209C227.632 74.8827 225.855 73.2145 224.157 71.4722C222.89 70.2147 221.691 68.8896 220.567 67.5029C219.506 66.1614 218.952 64.4879 219.003 62.7775C219.094 58.9232 222.429 56.1537 226.18 57.0002C227.464 57.3608 228.697 57.8856 229.848 58.5616C231.649 59.5108 233.364 60.6161 235.182 61.5612C236.008 61.9149 236.862 62.2007 237.734 62.4159Z" fill="#DED3AC"/>
<path d="M218.22 157.579C214.881 156.164 211.582 154.433 207.98 154.06C204.377 153.686 200.245 155.061 198.738 158.348C198.264 159.457 198.016 160.648 198.006 161.853C197.929 164.709 198.555 167.542 199.83 170.104C201.104 172.667 202.989 174.883 205.321 176.561C209.19 179.293 213.989 180.334 218.677 181.085C223.066 181.789 227.55 182.29 231.979 181.811C236.408 181.332 240.822 179.816 244.154 176.884C246.349 174.958 248.067 172.265 247.998 169.367C247.922 168.048 247.505 166.77 246.789 165.657C246.072 164.543 245.079 163.631 243.905 163.007C242.077 162.074 239.806 162.499 237.812 162.35C231.063 161.831 224.445 160.219 218.22 157.579Z" fill="#DED3AC"/>
<path d="M340.681 66.1381C340.813 63.615 341.284 61.121 342.079 58.7227C343.131 55.7135 345.93 49.414 347.644 55.6711C348.456 58.6535 348.61 61.959 348.533 65.0337C352.511 61.1617 357.578 58.5972 363.055 57.6837C363.541 57.6029 364.111 57.5644 364.446 57.9223C366.213 59.804 358.226 65.8149 356.921 66.7C361.623 66.8116 366.506 67.3541 370.507 69.8247C370.738 69.9709 370.992 70.1594 371 70.4326C370.989 70.5452 370.954 70.6542 370.897 70.7523C370.841 70.8504 370.764 70.9356 370.673 71.0022C369.132 72.426 366.953 72.9263 364.862 73.111C362.77 73.2957 360.625 73.1918 358.592 73.6535C361.406 74.7019 363.958 76.3499 366.071 78.483C367.107 79.5297 368.081 80.8265 368.05 82.2965C366.541 83.02 364.758 82.5466 363.156 82.0656L353.913 79.2872C354.837 81.2652 355.769 83.2739 356.131 85.4443C356.493 87.6146 356.22 89.9505 354.911 91.6975C354.751 91.9565 354.508 92.1534 354.221 92.2555C353.624 92.4133 353.105 91.8438 352.762 91.332C350.835 88.4688 349.17 85.4384 347.786 82.2773C346.928 85.2096 346.069 88.1495 344.821 90.9318C344.124 92.471 343.027 94.1719 341.332 94.272C340.95 94.3113 340.567 94.21 340.254 93.9872C339.792 93.6024 339.692 92.9751 339.63 92.3941C339.194 88.3164 339.131 84.2075 339.441 80.1185L329.814 86.4371C328.967 86.9913 328.085 87.5608 327.087 87.7263C326.09 87.8917 324.927 87.53 324.461 86.6295C323.814 85.3712 324.785 83.8973 325.786 82.893C329.067 79.5951 333.183 77.2824 337.246 75.0081C334.424 74.4578 331.601 73.9037 328.801 73.2495C326.448 72.7031 324.03 72.045 322.162 70.5135C321.253 69.7708 320.518 68.3085 321.392 67.5235C321.595 67.3542 321.827 67.2237 322.077 67.1386C327.161 65.2146 332.837 67.027 337.866 69.105C335.497 66.2966 333.347 63.3106 331.435 60.1735C330.935 59.3538 330.438 58.4803 330.395 57.5221C330.36 57.1417 330.448 56.76 330.646 56.4331C330.814 56.2217 331.025 56.0485 331.266 55.9251C331.506 55.8017 331.77 55.7308 332.04 55.7173C333.984 55.5018 335.737 56.8718 337.046 58.3533C338.747 60.2868 340.099 62.5002 341.043 64.8951" fill="#DED3AC"/>
</g>
<rect x="0.5" y="0.5" width="352" height="202" rx="19.5" stroke="#ECECEC"/>
</g>
<defs>
<filter id="filter0_i_2010_997" x="0" y="0" width="353" height="203" filterUnits="userSpaceOnUse" color-interpolation-filters="sRGB">
<feFlood flood-opacity="0" result="BackgroundImageFix"/>
<feBlend mode="normal" in="SourceGraphic" in2="BackgroundImageFix" result="shape"/>
<feColorMatrix in="SourceAlpha" type="matrix" values="0 0 0 0 0 0 0 0 0 0 0 0 0 0 0 0 0 0 127 0" result="hardAlpha"/>
<feOffset/>
<feGaussianBlur stdDeviation="2"/>
<feComposite in2="hardAlpha" operator="arithmetic" k2="-1" k3="1"/>
<feColorMatrix type="matrix" values="0 0 0 0 0 0 0 0 0 0 0 0 0 0 0 0 0 0 0.25 0"/>
<feBlend mode="normal" in2="shape" result="effect1_innerShadow_2010_997"/>
</filter>
<clipPath id="clip0_2010_997">
<rect width="353" height="203" rx="20" fill="white"/>
</clipPath>
</defs>
</svg>
