<svg width="353" height="203" viewBox="0 0 353 203" fill="none" xmlns="http://www.w3.org/2000/svg">
<g filter="url(#filter0_i_2010_878)">
<g clip-path="url(#clip0_2010_878)">
<rect width="353" height="203" rx="20" fill="#B8D0DC"/>
<path fill-rule="evenodd" clip-rule="evenodd" d="M19.7755 154.135C24.6984 153.517 30.3242 155.026 33.7851 158.567C37.3359 162.201 34.8932 169.052 38.1554 172.945C41.531 176.974 51.0342 175.064 51.9396 180.233C52.8734 185.564 42.6851 187.204 41.581 192.503C40.4419 197.97 48.0835 203.221 46.0646 208.429C44.2908 213.006 37.8067 214.004 32.9447 214.786C28.4985 215.501 23.9518 214.334 19.7755 212.655C16.2809 211.25 14.6182 206.483 10.8924 205.92C4.92487 205.018 -1.53838 211.624 -6.77869 208.64C-11.0993 206.18 -9.92641 199.181 -9.63471 194.232C-9.37391 189.808 -5.7275 186.268 -5.20065 181.867C-4.59404 176.8 -9.07067 171.117 -6.34995 166.792C-3.73675 162.639 2.94524 164.031 7.37046 161.887C11.8158 159.733 14.8711 154.751 19.7755 154.135Z" fill="#ABC6CF"/>
<path fill-rule="evenodd" clip-rule="evenodd" d="M144.769 26.0798C147.707 25.7147 151.064 26.6052 153.13 28.6955C155.249 30.8401 153.791 34.8832 155.738 37.1808C157.752 39.5583 163.424 38.4311 163.964 41.4818C164.521 44.6282 158.441 45.5961 157.782 48.7234C157.102 51.9497 161.663 55.0483 160.458 58.1222C159.399 60.8232 155.53 61.4123 152.628 61.8736C149.975 62.2954 147.262 61.6072 144.769 60.6162C142.684 59.7871 141.692 56.9738 139.468 56.6413C135.907 56.1087 132.05 60.0073 128.922 58.2465C126.344 56.7946 127.044 52.6644 127.218 49.7437C127.374 47.1324 129.55 45.0437 129.864 42.4463C130.226 39.4556 127.555 36.1017 129.178 33.5496C130.738 31.0984 134.725 31.9197 137.366 30.6544C140.019 29.3834 141.842 26.4435 144.769 26.0798Z" fill="#ABC6CF"/>
<path fill-rule="evenodd" clip-rule="evenodd" d="M61.4418 87.015C65.4646 85.5727 71.1106 83.4578 73.7985 86.7292C76.5459 90.0729 70.8806 94.5659 71.1673 98.8515C71.5021 103.856 77.7235 108.144 75.5343 112.677C73.2357 117.436 66.8063 119.174 61.4418 118.986C56.2244 118.804 51.7572 115.58 48.3193 111.725C45.128 108.147 41.7172 103.279 43.4828 98.8515C45.1871 94.5779 51.8168 95.7773 55.6996 93.2182C58.1564 91.599 58.6619 88.0117 61.4418 87.015Z" fill="#ABC6CF"/>
<path fill-rule="evenodd" clip-rule="evenodd" d="M209.171 76.6487C212.684 77.0138 215.97 77.8441 218.827 79.9403C222.365 82.5358 226.493 85.3006 226.951 89.6925C227.432 94.3162 224.32 98.4175 221.096 101.736C217.835 105.093 213.825 108.152 209.171 107.994C204.617 107.839 200.944 104.484 198.023 100.952C195.392 97.7716 194.16 93.8346 194.031 89.6925C193.898 85.3855 194.054 80.4999 197.3 77.7032C200.442 74.9965 205.063 76.2219 209.171 76.6487Z" fill="#ABC6CF"/>
<path fill-rule="evenodd" clip-rule="evenodd" d="M149.409 137.385C156.283 135.891 163.553 138.907 168.707 143.666C174.035 148.585 176.733 155.612 176.969 162.833C177.213 170.311 176.131 178.939 169.999 183.284C164.185 187.404 156.532 182.879 149.409 182.362C143.227 181.913 136.235 184.61 131.622 180.499C126.912 176.302 126.377 169.018 127.495 162.833C128.452 157.54 133.518 154.632 137.037 150.545C141.12 145.804 143.272 138.718 149.409 137.385Z" fill="#ABC6CF"/>
<path fill-rule="evenodd" clip-rule="evenodd" d="M307.457 22.0134C309.445 21.8726 311.337 22.8683 313.052 23.8666C314.694 24.8225 315.791 26.3767 317.174 27.67C318.749 29.1444 321.187 30.0179 321.814 32.0656C322.436 34.0958 321.377 36.3017 320.395 38.1894C319.507 39.8953 317.697 40.8637 316.465 42.348C315.247 43.814 314.863 46.0442 313.152 46.9111C311.443 47.7767 309.355 46.6094 307.457 46.911C305.141 47.279 303.042 49.5537 300.8 48.874C298.652 48.2228 297.685 45.6841 296.763 43.6689C295.941 41.8697 296.394 39.7849 295.785 37.9053C295.112 35.8242 292.962 34.227 293.001 32.0435C293.039 29.8655 294.272 27.6753 295.989 26.2977C297.682 24.9395 300.194 25.3955 302.237 24.6324C304.086 23.9415 305.483 22.1531 307.457 22.0134Z" fill="#ABC6CF"/>
<path fill-rule="evenodd" clip-rule="evenodd" d="M37.2369 27.2894C40.0513 25.4329 42.4762 21.1785 45.699 22.1395C48.4955 22.9733 47.8131 27.5501 47.9849 30.4943C48.1133 32.6966 47.4058 34.7839 46.5551 36.8152C45.8768 38.4351 44.7893 39.7562 43.5777 41.0181C42.4301 42.2134 41.3186 43.6333 39.7021 43.9532C38.1223 44.2659 36.7327 42.9164 35.1388 42.6884C33.1545 42.4046 31.1262 43.1787 29.2527 42.4587C26.5163 41.407 23.3335 40.3374 22.0706 37.6658C20.7776 34.9309 20.2723 30.4315 22.7884 28.7847C25.945 26.7187 30.0326 30.3938 33.7727 30.0067C35.2563 29.8532 35.9876 28.1135 37.2369 27.2894Z" fill="#ABC6CF"/>
<path d="M345.496 156.008C344.007 155.172 342.518 154.41 341.03 153.708C342.518 153.275 344.007 152.812 345.496 152.215C368.794 138.639 340.136 110.518 319.622 109.039C322.748 106.291 324.088 101.796 322.302 94.3734C320.411 68.2379 293.525 73.8085 279.755 87.5184C256.784 106.366 274.173 114.55 293.793 113.908C280.961 119.016 269.974 128.514 265.106 141.85C261.295 151.827 266.52 156.173 274.127 158.01C272.534 158.756 270.956 159.503 269.408 160.354C249.296 170.375 241.957 198.348 266.55 207.802C278.968 212.325 292.047 214.758 305.256 215C325.74 213.163 351.152 210.52 364.298 192.822C372.932 177.081 359.311 162.371 345.496 156.008Z" fill="#ABC6CF"/>
</g>
<rect x="0.5" y="0.5" width="352" height="202" rx="19.5" stroke="#ECECEC"/>
</g>
<defs>
<filter id="filter0_i_2010_878" x="0" y="0" width="353" height="203" filterUnits="userSpaceOnUse" color-interpolation-filters="sRGB">
<feFlood flood-opacity="0" result="BackgroundImageFix"/>
<feBlend mode="normal" in="SourceGraphic" in2="BackgroundImageFix" result="shape"/>
<feColorMatrix in="SourceAlpha" type="matrix" values="0 0 0 0 0 0 0 0 0 0 0 0 0 0 0 0 0 0 127 0" result="hardAlpha"/>
<feOffset/>
<feGaussianBlur stdDeviation="2"/>
<feComposite in2="hardAlpha" operator="arithmetic" k2="-1" k3="1"/>
<feColorMatrix type="matrix" values="0 0 0 0 0 0 0 0 0 0 0 0 0 0 0 0 0 0 0.25 0"/>
<feBlend mode="normal" in2="shape" result="effect1_innerShadow_2010_878"/>
</filter>
<clipPath id="clip0_2010_878">
<rect width="353" height="203" rx="20" fill="white"/>
</clipPath>
</defs>
</svg>
