<svg width="353" height="203" viewBox="0 0 353 203" fill="none" xmlns="http://www.w3.org/2000/svg">
<g filter="url(#filter0_i_2010_916)">
<g clip-path="url(#clip0_2010_916)">
<rect width="353" height="203" rx="20" fill="#C6DDBF"/>
<path fill-rule="evenodd" clip-rule="evenodd" d="M60.3416 89.2484C64.7414 88.2839 69.3939 90.2314 72.6924 93.305C76.1021 96.4821 77.8293 101.02 77.98 105.684C78.1361 110.513 77.4441 116.085 73.5196 118.892C69.7985 121.552 64.9006 118.63 60.3416 118.296C56.3856 118.007 51.9103 119.748 48.9579 117.093C45.9439 114.383 45.6011 109.678 46.3168 105.684C46.9292 102.266 50.1716 100.387 52.4237 97.748C55.0369 94.6857 56.414 90.1093 60.3416 89.2484Z" fill="#BCD6B3"/>
<path fill-rule="evenodd" clip-rule="evenodd" d="M304.939 115.081C307.971 114.547 310.934 116.745 313.055 118.951C314.967 120.939 316.415 123.779 315.892 126.473C315.405 128.986 311.078 129.289 310.565 131.797C309.922 134.939 314.31 137.972 312.945 140.88C311.718 143.492 307.764 144.484 304.939 143.78C302.151 143.085 301.629 139.319 299.415 137.506C297.434 135.884 294.1 136.093 292.845 133.874C291.542 131.572 291.868 128.546 292.995 126.155C294.062 123.89 296.842 123.192 298.685 121.483C300.929 119.402 301.911 115.615 304.939 115.081Z" fill="#BCD6B3"/>
<path d="M305.394 35.8909C305.593 34.9223 305.732 34.1107 305.926 33.3115C306.841 29.5369 308.333 26.0438 310.989 23.1407C312.305 21.7041 313.837 20.5911 315.78 20.1529C318.18 19.5977 320.368 20.5662 321.271 22.8618C321.82 24.2647 322.145 25.745 322.236 27.2488C322.368 29.5046 322.209 31.7752 322.169 34.0409C322.169 34.4966 322.122 34.9497 322.099 35.4053L322.365 35.6294C322.42 35.4275 322.504 35.2346 322.614 35.0568C325.245 32.0915 328.085 29.3676 331.816 27.8364C332.835 27.4174 333.901 27.1207 334.99 26.9525C336.639 26.7036 337.832 27.5849 337.974 29.2531C338.056 30.3244 337.943 31.4017 337.641 32.4326C336.305 37.0611 333.98 41.2265 331.423 45.2649C328.687 49.5697 325.205 53.1949 321.249 56.3693C315.004 61.3987 307.702 61.2344 301.561 55.6797C295.666 50.3909 291.288 43.6233 288.877 36.0751C288.133 33.755 287.858 31.3097 288.069 28.8821C288.367 25.2147 290.66 23.432 294.286 24.022C297.467 24.5399 299.758 26.3998 301.484 28.9469C302.792 30.8789 303.822 32.9977 304.966 35.0369C305.1 35.2535 305.197 35.5 305.394 35.8909ZM313.32 45.8201C311.527 45.9546 309.982 46.4575 309.017 48.0609C308.226 49.3681 308.57 50.2619 310.012 50.725C311.922 51.3375 315.19 50.364 316.444 48.8079C317.08 48.0211 316.993 47.4285 316.284 46.6916C315.414 45.7828 314.28 46.0392 313.307 45.8201H313.32Z" fill="#BCD6B3"/>
<path d="M125.61 101.356C125.685 100.969 125.738 100.644 125.812 100.325C126.16 98.8148 126.727 97.4175 127.736 96.2563C128.236 95.6816 128.818 95.2365 129.556 95.0612C130.468 94.8391 131.3 95.2265 131.643 96.1447C131.851 96.7059 131.975 97.298 132.01 97.8995C132.06 98.8018 131.999 99.7101 131.984 100.616C131.984 100.799 131.966 100.98 131.958 101.162L132.059 101.252C132.08 101.171 132.111 101.094 132.153 101.023C133.153 99.8366 134.232 98.7471 135.65 98.1346C136.037 97.967 136.442 97.8483 136.856 97.781C137.483 97.6814 137.936 98.034 137.99 98.7012C138.021 99.1297 137.978 99.5607 137.863 99.973C137.356 101.824 136.472 103.491 135.501 105.106C134.461 106.828 133.138 108.278 131.634 109.548C129.261 111.559 126.487 111.494 124.153 109.272C121.913 107.156 120.249 104.449 119.333 101.43C119.05 100.502 118.946 99.5239 119.026 98.5528C119.14 97.0859 120.011 96.3728 121.389 96.6088C122.598 96.816 123.468 97.5599 124.124 98.5787C124.621 99.3516 125.012 100.199 125.447 101.015C125.498 101.101 125.535 101.2 125.61 101.356ZM128.622 105.328C127.94 105.382 127.353 105.583 126.987 106.224C126.686 106.747 126.816 107.105 127.365 107.29C128.09 107.535 129.332 107.146 129.809 106.523C130.05 106.208 130.017 105.971 129.748 105.677C129.417 105.313 128.986 105.416 128.617 105.328H128.622Z" fill="#BCD6B3"/>
<path d="M38.8034 14.2848C37.9883 13.2306 36.7981 12.6747 35.4636 12.8552C35.0235 12.9129 34.6268 13.0646 34.2373 13.2378C34.2301 13.2378 34.2228 13.2451 34.2084 13.2451L33.9992 13.2739C33.6169 13.3678 33.2779 13.5411 32.9966 13.801C32.506 14.1765 32.0804 14.718 31.9362 15.3389C31.8208 15.8588 31.8208 16.3931 31.9362 16.9129C32.0732 17.5122 32.4628 17.9959 32.9172 18.3858C32.8451 18.3281 32.7729 18.2703 32.7008 18.2198C32.8162 18.3353 32.9028 18.4652 33.011 18.588C33.1048 18.6963 33.2057 18.7974 33.3139 18.8912C33.552 19.2161 33.8477 19.4977 34.2012 19.736C35.5429 20.6313 37.3896 20.1909 38.4716 19.1006C38.9621 18.6024 39.3516 17.9959 39.568 17.3245C39.9287 16.227 39.4598 15.1295 38.8034 14.2848Z" fill="#BCD6B3"/>
<path d="M50.4891 9.12947C50.2871 7.96703 48.8372 6.86956 47.6614 6.97786C45.9951 7.12949 44.4947 7.90927 43.7084 9.44716C43.4776 9.90204 43.3189 10.393 43.2467 10.8912C42.9438 11.5194 42.749 12.2053 42.6624 12.9562C42.5903 13.5699 43.0087 14.4507 43.4487 14.8551C43.9753 15.3388 44.6173 15.6421 45.3459 15.6421C46.8246 15.6421 48.2457 14.9634 49.2195 13.8515C50.4169 12.4869 50.792 10.8984 50.4891 9.12947Z" fill="#BCD6B3"/>
<path d="M50.7629 22.0891C50.6835 21.757 50.532 21.4249 50.3733 21.1216C50.2146 20.8184 49.9838 20.5368 49.7602 20.2841C49.5438 20.0386 49.2625 19.8436 48.9956 19.6631C48.7214 19.4754 48.3824 19.3382 48.0795 19.2444C47.9063 19.1938 47.7476 19.1866 47.5601 19.1649C47.3365 19.1361 47.2427 19.1072 47.0623 19.1144C46.4636 19.1216 45.8865 19.2949 45.3744 19.5909C45.1363 19.7281 44.8839 19.9447 44.6819 20.1397C44.4871 20.3274 44.2924 20.6018 44.1409 20.8545C43.9966 21.1 43.8812 21.4176 43.7874 21.6848C43.7586 21.7642 43.7369 21.8509 43.7225 21.9375C43.6359 22.2119 43.6071 22.479 43.6215 22.7534C43.4412 23.3526 43.434 24.0097 43.5854 24.6378C43.6287 24.8111 43.6936 24.9411 43.773 25.1216C43.9389 25.5115 44.1481 25.8508 44.4511 26.1541C44.653 26.349 44.9199 26.5512 45.1652 26.7028C45.4177 26.8617 45.7134 26.9772 46.002 27.0566C46.6223 27.2154 47.221 27.2082 47.8486 27.071C48.2237 26.9844 48.5988 26.8328 48.9162 26.6089C49.5294 26.1902 49.8179 25.8797 50.2435 25.2877C50.4599 24.9844 50.597 24.609 50.7196 24.2696C50.734 24.2191 50.7484 24.1685 50.7629 24.118C50.8278 23.8364 50.8711 23.4826 50.8855 23.1938C50.8855 23.1433 50.8855 23.0927 50.8855 23.0422C50.8783 22.7245 50.835 22.3779 50.7629 22.0891Z" fill="#BCD6B3"/>
<path d="M61.1656 17.4616C61.1151 15.8443 59.9032 14.7541 58.3379 14.6313C56.0873 14.458 53.9449 16.5158 54.0675 18.7829C54.1613 20.4724 55.2938 21.967 57.0755 22.0537C57.5516 22.0753 57.9844 21.9381 58.3668 21.6999C60.0908 21.1583 61.2233 19.3172 61.1656 17.4616Z" fill="#BCD6B3"/>
<path d="M40.9606 30.6455C40.8092 29.5408 40.2032 28.5516 39.251 27.9451C38.8399 27.6852 38.4071 27.5408 37.9598 27.4902C37.9238 27.483 37.8949 27.4614 37.8589 27.4541C36.7624 27.1798 35.5577 27.5408 34.8003 28.3928C34.1006 29.1798 33.6967 30.1617 33.6895 31.2231C33.6895 33.2231 35.2043 35.1436 37.3034 35.1003C39.5973 35.0498 41.2564 32.8259 40.9606 30.6455Z" fill="#BCD6B3"/>
<path d="M52.0271 34.0461C51.7457 33.4685 51.2047 32.927 50.6493 32.6093C49.8919 32.1761 48.9036 32.01 48.0597 32.2627C47.5475 32.4143 47.158 32.6454 46.7829 32.927C46.2058 33.1725 45.6215 33.6923 45.3618 34.1833C45.0444 34.7898 44.9146 35.4179 45.0084 36.1039C45.1454 37.1219 45.8451 38.075 46.7901 38.4937C46.9199 38.5948 47.0426 38.6959 47.1796 38.797C47.7351 39.1796 48.377 39.3529 49.0407 39.3746C50.1444 39.4179 51.3346 38.6887 51.8323 37.714C52.0199 37.3457 52.1425 36.9703 52.2218 36.5804C52.2579 36.4865 52.294 36.3999 52.33 36.306C52.5681 35.5407 52.3589 34.732 52.0271 34.0461Z" fill="#BCD6B3"/>
<path d="M65.6878 30.7391C65.3921 29.4394 64.2884 28.1615 62.9539 27.8654C62.9106 27.8582 62.8673 27.851 62.8241 27.8438C62.3263 27.6994 61.7853 27.6849 61.2515 27.8366C59.881 28.2264 59.0009 29.2878 58.5465 30.5874C58.193 31.591 58.294 32.7824 58.8422 33.6993C59.7006 35.1145 61.3237 35.5694 62.8673 35.23C64.9304 34.7751 66.1423 32.7679 65.6878 30.7391Z" fill="#BCD6B3"/>
<path d="M72.0005 17.6348C70.3559 15.9742 67.4921 15.9453 66.0278 17.8442C65.5228 18.5012 65.1766 19.3388 65.1982 20.1907C65.2054 20.5734 65.2631 21.0066 65.3858 21.3821C65.5589 21.9092 65.7897 22.3568 66.2009 22.7539C66.3596 22.9055 66.6842 23.1438 66.9222 23.3026C66.9295 23.3026 66.9295 23.3099 66.9367 23.3099C67.1026 23.4759 67.2829 23.6276 67.4993 23.7431C68.1846 24.1041 69.0574 24.3135 69.8149 24.0463C70.9618 23.642 72.0222 23.0499 72.6281 21.9453C73.4072 20.5229 73.1258 18.7684 72.0005 17.6348Z" fill="#BCD6B3"/>
<path d="M67.8745 7.46881C67.4922 6.1042 66.2586 5.08615 64.8232 5.06449C62.6519 5.03561 60.8557 7.20889 60.9279 9.30274C60.9495 9.81537 61.0721 10.328 61.2741 10.7973C61.2958 10.9417 61.3174 11.0933 61.3463 11.245C61.4545 11.8803 62.0965 12.6457 62.6519 12.9417C63.3011 13.2811 64.1235 13.4832 64.8376 13.2305C66.3813 12.6818 67.5066 11.4038 67.86 9.79371C68.026 9.03559 68.0909 8.23415 67.8745 7.46881Z" fill="#BCD6B3"/>
<path d="M59.658 -1.23856C59.3334 -1.80173 58.814 -2.22051 58.2225 -2.46599C57.6454 -2.71148 56.8736 -2.84144 56.2677 -2.61761C55.8709 -2.46599 55.4453 -2.32159 55.0919 -2.08332C54.522 -1.69343 54.1253 -1.31798 53.7429 -0.740368C53.5482 -0.437121 53.3967 -0.0761123 53.3029 0.277676C53.1514 0.876951 53.1442 1.54843 53.3101 2.14048C53.4616 2.71088 53.779 3.25961 54.1902 3.67838C54.4282 3.93109 54.724 4.16213 55.0342 4.32098C55.604 4.617 56.2172 4.80473 56.8664 4.76863C57.3425 4.74697 57.7248 4.66754 58.1504 4.49426C58.5543 4.32098 58.9294 4.11881 59.2252 3.77946C59.6941 3.24517 59.9754 2.66755 60.0331 2.01052C60.4443 0.934712 60.2351 -0.234957 59.658 -1.23856Z" fill="#BCD6B3"/>
<path d="M46.8456 -0.79128C46.7013 -1.34723 46.3695 -1.99705 45.9295 -2.39416C44.9629 -3.27502 43.7222 -3.59993 42.4454 -3.31112C41.4932 -3.09452 40.6564 -2.43026 40.1803 -1.59272C39.8629 -1.03676 39.697 -0.372509 39.7187 0.262867C39.7475 1.04987 39.9423 1.57694 40.2813 2.28452C40.7214 3.18704 41.8972 3.82241 42.8782 3.77187C43.2461 3.75743 43.614 3.70689 43.9746 3.63469C44.0107 3.62747 44.0468 3.62025 44.0828 3.60581C44.3065 3.53361 44.6527 3.39642 44.8547 3.2809C45.2154 3.07152 45.5327 2.80437 45.7996 2.48668C45.879 2.4217 45.9511 2.3495 46.0233 2.27008C46.2108 2.05347 46.4056 1.82242 46.5499 1.56972C46.961 0.847701 47.0548 0.01016 46.8456 -0.79128Z" fill="#BCD6B3"/>
<path d="M36.6612 3.29551C36.4664 2.59516 35.9326 1.84426 35.2834 1.49769C34.5837 1.12946 33.7397 0.941736 32.9679 1.19444C32.5495 1.33163 32.1744 1.52657 31.8498 1.79372C31.4747 1.8948 31.1212 2.06086 30.7894 2.31357C30.7389 2.35689 30.6884 2.40021 30.6379 2.44353C30.6235 2.39299 30.5297 2.48685 30.3422 2.73956C30.2484 2.84786 30.1618 2.95617 30.0897 3.07169C30.068 3.10779 30.0464 3.13667 30.0248 3.17277C29.7651 3.59876 29.6064 4.08973 29.6497 4.59515C29.6497 4.59515 29.6497 4.58793 29.6569 4.58793C29.6569 4.60237 29.6569 4.61681 29.6569 4.63847C29.7002 5.47601 29.9743 6.1908 30.5513 6.81896C30.9192 7.22329 31.4747 7.49044 32.0013 7.64928C32.5567 7.81534 33.1915 7.78647 33.7397 7.6565C34.865 7.38936 35.7811 6.58069 36.3654 5.61319C36.7622 4.94893 36.8632 4.03919 36.6612 3.29551Z" fill="#BCD6B3"/>
<path d="M27.3547 25.4393C26.8859 25.0134 26.2294 24.674 25.5802 24.7029C25.3566 24.7318 25.133 24.7607 24.9094 24.7895C24.6713 24.8545 24.4549 24.9556 24.2602 25.0783C23.6903 25.035 23.106 25.1578 22.6083 25.4538C21.8725 25.887 21.3964 26.5224 21.1367 27.331C20.6823 28.7606 21.5407 30.4068 22.8247 31.0783C23.5172 31.4393 24.3467 31.7209 25.1402 31.6704C25.4504 31.6487 25.7606 31.6198 26.0635 31.5404C26.0996 31.5332 26.1357 31.5187 26.1717 31.5043C26.4098 31.4177 26.6983 31.3166 26.9219 31.1866C27.4269 30.8834 27.8669 30.4646 28.1482 29.9375C28.9201 28.4935 28.5594 26.5513 27.3547 25.4393Z" fill="#BCD6B3"/>
<path d="M32.4771 41.0058C32.1885 39.9228 31.2147 39.0203 30.1399 38.7459C29.0435 38.4571 27.7378 38.8037 26.9804 39.6845C26.7496 39.9589 26.5476 40.2405 26.4033 40.551C25.7757 41.3452 25.3862 42.421 25.5088 43.3957C25.6098 44.1827 25.7685 44.9553 26.3889 45.5257C26.9948 46.0816 27.6873 46.356 28.5169 46.4065C30.3347 46.522 32.1525 45.3307 32.5564 43.504C32.7368 42.6593 32.7007 41.8289 32.4771 41.0058Z" fill="#BCD6B3"/>
<path d="M46.1546 47.0354C45.6929 46.2196 44.683 45.5842 43.7308 45.642C43.5289 45.6564 43.3341 45.6781 43.1393 45.7142C42.5118 45.6853 41.9202 45.8513 41.3648 46.1401C40.6507 46.5084 39.9798 47.1293 39.5687 47.8224C38.4001 49.7863 39.1791 52.4939 41.3071 53.3964C44.9283 54.9271 47.8281 50.0174 46.1546 47.0354Z" fill="#BCD6B3"/>
<path d="M59.5711 44.3348C59.1239 43.4973 58.0202 42.8041 57.0464 42.8908C55.8201 42.9991 54.6299 43.4178 53.9229 44.4864C53.1295 45.0135 52.7832 45.9305 52.7832 46.8691C52.7832 47.5333 52.9708 48.2048 53.3242 48.7608C53.9879 49.8005 55.0627 50.3636 56.2817 50.3925C57.6162 50.4286 59.0157 49.7427 59.6793 48.5442C60.4367 47.1723 60.278 45.6777 59.5711 44.3348Z" fill="#BCD6B3"/>
<path d="M26.0854 14.7178C25.7608 14.2123 25.3352 13.7936 24.8158 13.4903C24.1594 13.1149 23.6472 13.0643 22.9043 12.9777C22.6013 12.9416 22.2478 13.021 21.9016 13.1582C21.8583 13.1582 21.8078 13.151 21.7645 13.151C20.2713 13.151 19.11 14.3495 18.7493 15.7214C18.1289 18.0463 19.9179 20.2629 22.1829 20.5733C24.1378 20.8332 26.0421 19.5481 26.5254 17.6203C26.7635 16.6455 26.6336 15.5553 26.0854 14.7178Z" fill="#BCD6B3"/>
<path d="M19.0735 38.0679C18.7201 37.4181 17.9843 36.8765 17.2774 36.6888C16.8806 36.5661 16.4767 36.5444 16.0799 36.6383C15.8635 36.6455 15.6616 36.6888 15.4596 36.7538C15.2215 36.7249 14.9763 36.7321 14.7382 36.8043C13.9592 37.0282 13.31 37.4469 12.8122 38.0895C12.704 38.2267 12.603 38.3422 12.5165 38.4939C12.4588 38.595 12.1991 39.252 12.3578 38.8693C12.3073 38.9921 12.2568 39.1076 12.2063 39.2303C12.0837 39.6274 12.062 40.0318 12.1558 40.4289C12.1414 40.3422 12.1774 40.7249 12.2135 40.8549C12.264 41.0281 12.4443 41.4614 12.5381 41.6058C12.8844 42.1617 13.2739 42.5588 13.8221 42.9126C13.9808 43.0137 14.1467 43.0715 14.3271 43.1437C14.5002 43.2159 14.6661 43.3025 14.8464 43.3458C15.1422 43.418 15.4812 43.4614 15.7842 43.4758C15.8491 43.4758 15.9068 43.4758 15.9717 43.4686C16.6787 43.4108 17.1259 43.3242 17.7607 42.9776C18.0709 42.8115 18.3594 42.5877 18.5975 42.335C19.189 41.6852 19.5857 40.8549 19.5785 39.9596C19.5641 39.2375 19.4054 38.6816 19.0735 38.0679Z" fill="#BCD6B3"/>
<path d="M22.1396 2.98537C22.1541 2.57382 22.0675 2.18393 21.88 1.83014C21.7573 1.45469 21.5481 1.137 21.2596 0.862633C20.9855 0.566606 20.6681 0.36444 20.293 0.241697C19.9323 0.0539727 19.55 -0.0326686 19.1388 -0.0182282C18.8719 0.0178727 18.605 0.0539733 18.3381 0.0900742C17.826 0.234478 17.386 0.494404 17.0109 0.862633C16.8522 1.0648 16.7007 1.26696 16.542 1.46913C16.441 1.64963 16.3616 1.83014 16.2967 2.01786C15.9649 2.50161 15.7773 3.08645 15.7773 3.67128C15.7773 4.19114 15.9072 4.68211 16.1741 5.13698C16.4338 5.57019 16.78 5.91676 17.2128 6.17668C17.4725 6.28499 17.7322 6.42217 18.0063 6.50159C18.2949 6.58823 18.5978 6.60268 18.9008 6.62434C19.4129 6.66044 20.0477 6.44383 20.4805 6.18391C20.7258 6.0395 20.9711 5.85178 21.1658 5.64239C21.3245 5.44023 21.476 5.23806 21.6347 5.0359C21.6419 5.02868 21.6491 5.01424 21.6563 5.00702C21.6636 4.98535 21.678 4.97092 21.6852 4.94926C21.8222 4.68933 21.9521 4.41496 22.0242 4.12615C22.0314 4.09727 22.0387 4.06839 22.0387 4.03951C22.0819 3.77236 22.1396 3.4619 22.1469 3.19475C22.1469 3.11533 22.1469 3.05035 22.1396 2.98537Z" fill="#BCD6B3"/>
<path d="M14.1266 26.7319C14.0545 26.4287 13.9174 26.1326 13.7587 25.8655C13.362 25.2157 12.7056 24.6886 11.9626 24.4864C11.5658 24.3637 11.1619 24.342 10.7651 24.4359C10.3684 24.4576 9.9933 24.5731 9.64705 24.7897C9.07719 25.1579 8.56503 25.6922 8.34141 26.342C8.26207 26.4431 8.18993 26.5514 8.12501 26.6669C8.00959 26.9124 7.90139 27.1579 7.81483 27.4106C7.77876 27.6705 7.74269 27.9377 7.70663 28.1976C7.6922 28.6092 7.77876 28.9846 7.9591 29.3384C8.03123 29.5911 8.15386 29.8077 8.34141 29.9954C8.5506 30.3203 8.82472 30.573 9.17096 30.7608C9.28638 30.8474 9.41622 30.9052 9.56049 30.934C9.92117 31.1218 10.3035 31.2084 10.7147 31.194C10.9815 31.1579 11.2484 31.1218 11.5153 31.0857C11.537 31.0785 11.5586 31.0712 11.5803 31.064C11.8472 30.9702 12.2006 30.8402 12.4747 30.6741C12.7344 30.5153 12.9941 30.3276 13.2033 30.1182C13.2249 30.0965 13.2466 30.0676 13.2754 30.046C13.4269 29.8871 13.665 29.5839 13.7732 29.3962C13.7876 29.3745 13.7948 29.3528 13.8092 29.3312C13.9174 29.129 14.0617 28.7897 14.1266 28.5731C14.2204 28.277 14.2637 27.9593 14.2493 27.6489C14.242 27.3601 14.1916 27.0135 14.1266 26.7319Z" fill="#BCD6B3"/>
<path d="M80.6352 6.71042C80.4621 5.95953 79.9066 5.40357 79.3007 4.97758C78.8102 4.63101 78.0095 4.47939 77.4252 4.50105C76.7688 4.52271 76.0763 4.70321 75.5353 5.07866C74.3667 5.89454 73.7175 7.07865 73.667 8.50825C73.6453 9.20138 73.9988 10.0822 74.5109 10.5516C75.088 11.0859 75.7589 11.3674 76.5524 11.3963C76.7688 11.4035 76.978 11.4108 77.1871 11.3891C77.9662 11.3169 78.6731 11.1003 79.243 10.5227C79.5315 10.2266 79.784 9.84398 79.9499 9.43965C80.2673 9.10752 80.527 8.70319 80.628 8.25554C80.7506 7.74291 80.7506 7.22306 80.6352 6.71042Z" fill="#BCD6B3"/>
<path d="M80.6477 34.7099C80.6261 33.9229 80.3303 33.1431 79.7677 32.5799C79.2483 32.0601 78.3899 31.663 77.6397 31.6991C76.8607 31.7352 76.06 31.9879 75.5117 32.5799C75.4468 32.6521 75.3819 32.7243 75.3242 32.8037C75.2881 32.8182 75.252 32.8398 75.216 32.8615C74.8192 33.0781 74.4225 33.4897 74.1917 33.8796C73.9248 34.3344 73.8021 34.9048 73.7949 35.4319C73.7949 35.598 73.831 35.7785 73.8526 35.9301C73.9031 36.3272 74.0185 36.7315 74.2277 37.0853L74.6894 37.6846C74.9563 37.9734 75.2737 38.1756 75.6344 38.2911C75.8868 38.3994 75.9229 38.4283 76.1249 38.4571C76.4639 38.5077 76.8102 38.5799 77.1564 38.5871C77.4017 38.5943 77.7623 38.5221 78.0076 38.4788C78.0509 38.4716 78.0942 38.4644 78.1374 38.4499C78.4332 38.3777 78.7217 38.2478 78.9886 38.0961C79.5152 37.7857 79.8903 37.3813 80.2077 36.8687C80.6117 36.2045 80.6694 35.4463 80.6477 34.7099Z" fill="#BCD6B3"/>
<path d="M87.2982 25.6921C87.2693 25.526 87.2116 25.3744 87.1467 25.2228C87.1034 24.2047 86.548 23.3888 85.7184 22.8329C84.7085 22.1614 83.3235 22.2119 82.292 22.8112C81.3182 23.3744 80.6185 24.4863 80.6473 25.6271C80.6906 27.1433 81.614 28.3419 82.8835 29.0856L83.5977 29.3888L84.3984 29.4971C84.6653 29.461 84.9322 29.4249 85.1991 29.3888C85.5886 29.2949 85.9276 29.1144 86.2234 28.8545C86.447 28.7245 86.6273 28.544 86.7644 28.313C86.9519 28.1253 87.0818 27.9014 87.1539 27.6487C87.291 27.4177 87.3559 27.165 87.3559 26.8906C87.4425 26.4935 87.4208 26.0964 87.2982 25.6921Z" fill="#BCD6B3"/>
<path d="M74.0859 44.6019C74.0715 44.5225 74.0571 44.4503 74.0282 44.3708C73.819 43.7427 73.581 43.2806 73.1266 42.7968C72.297 41.9232 71.013 41.5766 69.8516 41.9015C69.5703 41.981 69.289 42.0893 69.0437 42.2481C68.9283 42.3203 68.7768 42.4503 68.7047 42.508C68.683 42.5225 68.4522 42.6813 68.3584 42.7824C67.8823 43.295 67.702 43.6633 67.4568 44.2986C67.1826 45.0134 67.2548 45.8798 67.4207 46.6019C67.5145 46.9918 67.6948 47.3311 67.9617 47.6271C68.1709 47.952 68.4522 48.212 68.8057 48.3997C69.1519 48.6163 69.5198 48.739 69.9238 48.7535C70.3205 48.8401 70.7245 48.8257 71.1212 48.7029C71.2655 48.6596 71.4025 48.6019 71.5468 48.5369C71.5612 48.5369 71.5829 48.5297 71.5973 48.5297C71.8642 48.5297 72.1167 48.4575 72.3547 48.3275C72.6072 48.2553 72.8308 48.1253 73.0111 47.9448C73.2348 47.8149 73.4151 47.6344 73.5449 47.4105C73.8118 47.1217 73.985 46.7824 74.0787 46.3925C74.2663 45.7282 74.2014 45.2445 74.0859 44.6019Z" fill="#BCD6B3"/>
<path d="M86.6856 11.1293C85.82 11.1582 84.9832 11.3748 84.2619 11.8225C84.2258 11.8297 84.1897 11.8369 84.1609 11.8441C83.4323 12.0824 82.7326 12.53 82.3647 13.2232C81.9968 13.9235 81.8165 14.7611 82.0617 15.5409C82.1267 15.7358 82.1988 15.9235 82.2854 16.104C82.2998 16.1979 82.307 16.2845 82.3214 16.3784C82.4224 16.6167 82.5234 16.8549 82.6244 17.1004C82.9562 17.6636 83.4684 18.0824 84.0599 18.3278C85.1563 18.7899 86.4908 18.5733 87.342 17.7069C87.3853 17.6636 87.4214 17.613 87.4646 17.5625C87.5728 17.5192 87.681 17.4759 87.782 17.4181C88.0778 17.252 88.3808 17.021 88.6188 16.7899C89.3618 16.0751 89.6503 15.1437 89.6864 14.1329C89.7513 12.5517 88.2653 11.0716 86.6856 11.1293Z" fill="#BCD6B3"/>
<path d="M88.129 -1.59952C86.9244 -1.93164 85.5755 -1.58508 84.6954 -0.689774C84.241 -0.227682 83.9813 0.277729 83.7937 0.891444C83.4691 1.95281 83.8659 3.1658 84.6233 3.93836C85.0417 4.35713 85.5755 4.61706 86.1309 4.71092C86.5854 4.98529 87.1119 5.17301 87.6169 5.11525C87.9487 5.07193 88.2805 5.06471 88.5979 4.96362C89.1534 4.78312 89.5934 4.54485 90.0118 4.12608C90.6321 3.50515 91.0072 2.60985 91 1.72899C90.9856 0.0900056 89.6222 -1.18075 88.129 -1.59952Z" fill="#BCD6B3"/>
<path d="M8.58543 9.04271C7.23651 8.65282 5.75774 9.20155 4.84163 10.2268C4.54588 10.5517 4.24291 10.9127 4.04815 11.3171C3.64419 12.1402 3.39172 13.0932 3.68747 14.0102C3.99044 14.9344 4.63244 15.6636 5.46199 16.0535C5.76496 16.2845 6.09678 16.4506 6.45024 16.5373C7.31586 16.7539 8.26804 16.7178 9.04709 16.2412C9.6386 15.8802 10.093 15.4542 10.4609 14.8622C11.7017 12.8766 10.9803 9.73584 8.58543 9.04271Z" fill="#BCD6B3"/>
<path d="M6.63774 -0.170105C6.63774 -0.162884 6.63774 -0.155663 6.63774 -0.141223C6.64496 -0.155663 6.64496 -0.162884 6.63774 -0.170105C7.1499 -1.40476 6.91186 -2.77659 5.81541 -3.62857C4.74781 -4.45889 3.04543 -4.45889 2.08603 -3.40474C1.55945 -2.82713 1.11221 -2.19175 0.917448 -1.4192C0.664976 -0.422811 0.722684 0.580794 1.19156 1.50498C1.92734 2.93457 3.7812 3.48331 5.17341 2.69631C5.83705 2.32086 6.29871 1.67104 6.52954 0.956243C6.65217 0.588014 6.65938 0.212565 6.63053 -0.162884C6.63774 -0.162884 6.63774 -0.162884 6.63774 -0.170105Z" fill="#BCD6B3"/>
<path d="M30.3132 56.4572C30.2771 56.19 30.241 55.9229 30.205 55.6557C30.1112 55.2659 29.9308 54.9265 29.6639 54.6305C29.5269 54.4067 29.3538 54.2262 29.1229 54.089C28.9354 53.9012 28.7118 53.7713 28.4593 53.6991C28.2285 53.5619 27.9688 53.4969 27.7019 53.4969C27.3051 53.4103 26.9012 53.4247 26.5044 53.5475C25.9562 53.6269 25.3647 53.9879 24.9535 54.3706C24.8886 54.3994 24.8237 54.4283 24.7588 54.45L24.16 54.9121C24.124 54.9337 24.0951 54.9626 24.0735 54.9915C23.3377 55.7713 23.0203 56.8399 23.3089 57.8868C23.5758 58.8615 24.3909 59.7279 25.3863 59.9662C26.0788 60.1323 27.0166 60.2261 27.7163 60.0312C28.2068 59.894 28.7478 59.598 29.1013 59.2225C29.2816 59.0276 29.5052 58.7604 29.6351 58.5294C29.8299 58.19 29.9669 57.7713 30.1112 57.4247C30.14 57.3597 30.1689 57.2947 30.1905 57.2297C30.241 56.9915 30.2771 56.7243 30.3132 56.4572Z" fill="#BCD6B3"/>
<path d="M19.0032 51.1937C18.6786 50.6161 18.39 50.4356 17.8779 50.0457C17.4451 49.793 16.9834 49.6703 16.4857 49.6703C15.9879 49.6703 15.5263 49.8003 15.0935 50.0457C14.3938 50.4067 13.7806 50.8616 13.3622 51.5403C12.9583 52.1901 12.7851 53.0132 12.8645 53.7713C12.8645 54.2984 13.0015 54.7894 13.2612 55.2443C13.4416 55.5836 13.694 55.858 14.0114 56.0601C14.74 56.6233 15.6489 56.8327 16.5578 56.58C16.9257 56.4789 17.2719 56.2984 17.6182 56.1468C17.95 56.0024 18.2458 55.7858 18.4982 55.5259C18.9527 55.0638 19.2196 54.4789 19.3061 53.8436C19.3278 53.6847 19.335 53.5186 19.335 53.3526C19.3927 53.1432 19.4216 52.9194 19.4216 52.6955C19.472 52.2551 19.2196 51.5692 19.0032 51.1937Z" fill="#BCD6B3"/>
<path d="M6.42191 40.2044C6.12616 39.3308 5.60679 38.6954 4.75559 38.3344C3.9549 37.9951 2.94501 37.9734 2.18759 38.4788C1.24984 39.1142 0.622265 39.894 0.232737 40.9625C-0.127937 41.9662 -0.09187 43.2008 0.499636 44.1105C1.39411 45.4968 3.21191 46.2044 4.64018 45.0997C5.04413 44.782 5.32546 44.3921 5.51301 43.9589C5.69335 43.8073 5.86647 43.6485 6.01795 43.4463C6.74652 42.5077 6.79701 41.3091 6.42191 40.2044Z" fill="#BCD6B3"/>
<path fill-rule="evenodd" clip-rule="evenodd" d="M81.2423 193.775C79.9662 187.821 73.8858 184.907 69.3821 180.809C65.3133 177.107 62.0842 170.74 56.6186 171.369C51.1953 171.993 51.0343 180.401 46.5012 183.442C39.4507 188.172 27.1539 185.329 24.0379 193.225C20.9172 201.134 27.3392 210.17 33.7492 215.757C39.7686 221.003 48.1616 221.529 56.1403 221.204C63.6161 220.899 71.4491 219.534 76.4998 214.015C81.3636 208.7 82.7521 200.818 81.2423 193.775Z" fill="#BCD6B3"/>
<path fill-rule="evenodd" clip-rule="evenodd" d="M197.009 118.178C211.481 116.423 224.755 127.936 232.977 139.941C240.039 150.252 238.073 163.42 236.476 175.804C235.144 186.131 231.904 195.882 224.78 203.495C217.371 211.411 207.857 218.472 197.009 217.975C186.456 217.492 179.027 208.629 171.676 201.064C164.497 193.675 156.577 186.077 156.032 175.804C155.465 165.128 162.642 156.442 168.844 147.721C177.037 136.198 182.947 119.884 197.009 118.178Z" fill="#BCD6B3"/>
<path d="M200.844 27.5931C201.085 26.6019 201.388 25.585 202.083 24.8383C202.778 24.0917 203.969 23.7184 204.837 24.2494C205.648 24.745 205.893 25.7941 206.015 26.7371C206.483 30.3479 206.229 34.0157 205.269 37.5276C208.161 34.4875 212.038 32.5718 216.209 32.1211C216.853 32.0503 217.57 32.0374 218.085 32.4429C218.337 32.6757 218.518 32.9742 218.608 33.3046C218.699 33.6351 218.695 33.9843 218.597 34.3126C218.391 34.9721 218.037 35.5755 217.561 36.0762C215.923 37.9951 213.893 39.5403 211.608 40.6074C214.124 40.8391 216.656 40.4336 219.182 40.4111C221.708 40.3885 224.389 40.8165 226.329 42.4385C226.88 42.8987 227.394 43.6067 227.153 44.2825C226.947 44.8521 226.304 45.116 225.724 45.2995C222.534 46.3104 219.222 46.8852 215.878 47.0083C220.242 47.4276 224.369 49.1894 227.69 52.0512C228.405 52.6691 229.138 53.5026 228.978 54.4326C228.839 55.2082 228.077 55.7521 227.301 55.8905C226.515 55.976 225.719 55.9027 224.962 55.6748L212.509 52.7785C215.839 56.3286 217.769 60.9663 217.94 65.8314C217.967 66.0457 217.928 66.263 217.831 66.4557C217.754 66.5562 217.657 66.6395 217.546 66.7005C217.436 66.7614 217.313 66.7986 217.187 66.8097C215.607 67.08 214.291 65.6705 213.326 64.3768C211.421 61.7866 209.649 59.1014 208.017 56.3314C208.017 61.4804 207.939 66.8934 205.474 71.4246C205.072 72.1647 204.297 72.9789 203.544 72.6282C203.294 72.4907 203.087 72.287 202.945 72.0392C202.047 70.6651 201.88 68.9466 201.764 67.3053C201.485 63.3276 201.346 59.3446 201.346 55.3562C197.935 60.1223 194.338 65.059 189.157 67.8009C188.298 68.2579 187.036 68.5507 186.515 67.7301C186.311 67.3145 186.263 66.8394 186.38 66.3914C187.21 61.2423 191.297 57.3612 195.155 53.8694C190.417 54.619 185.585 54.5417 180.874 53.6409C180.05 53.4833 179.046 53.0971 179.001 52.2604C178.972 51.6907 179.429 51.2209 179.873 50.8637C184.282 47.3044 190.335 46.7991 195.988 46.4451C191.255 45.7146 186.922 43.3648 183.728 39.7964C182.763 38.7215 181.897 37.4536 181.83 36.015C181.792 35.7292 181.863 35.4395 182.029 35.2041C182.16 35.0886 182.314 35.0006 182.479 34.9453C182.645 34.89 182.82 34.8686 182.995 34.8822C185.534 34.77 188.063 35.2788 190.362 36.3644C192.661 37.4501 194.661 39.0799 196.188 41.1126C194.292 39.7337 192.702 37.9774 191.518 35.9543C190.335 33.9311 189.582 31.6848 189.308 29.3566C189.25 29.0861 189.28 28.804 189.395 28.5521C189.556 28.3199 189.798 28.156 190.074 28.0919C191.384 27.6735 192.851 28.0147 194.016 28.7355C195.181 29.4564 196.072 30.5795 196.86 31.693C198.055 33.3733 199.021 35.2056 199.731 37.1414C199.914 33.92 200.069 30.763 200.844 27.5931Z" fill="#BCD6B3"/>
<path d="M200.953 44.7621C199.86 45.513 199.085 46.6443 198.781 47.9352C198.594 48.7494 198.623 49.6762 199.138 50.3392C199.695 51.06 200.667 51.3046 201.574 51.4044C202.843 51.5857 204.138 51.4756 205.358 51.0826C205.967 50.8842 206.528 50.5622 207.006 50.1369C207.485 49.7116 207.87 49.1922 208.138 48.611C208.628 47.4299 208.425 45.9399 207.495 45.071C205.812 43.5263 202.761 43.5327 200.953 44.7621Z" fill="#BCD6B3"/>
<path d="M330.185 153.675C330.297 153.213 330.438 152.739 330.762 152.391C331.087 152.043 331.642 151.869 332.047 152.116C332.425 152.347 332.539 152.837 332.596 153.276C332.814 154.96 332.696 156.67 332.248 158.307C333.596 156.89 335.404 155.997 337.349 155.786C337.649 155.753 337.984 155.747 338.224 155.937C338.341 156.045 338.425 156.184 338.467 156.338C338.51 156.492 338.508 156.655 338.462 156.808C338.366 157.116 338.201 157.397 337.979 157.631C337.216 158.525 336.269 159.246 335.203 159.743C336.377 159.851 337.557 159.662 338.735 159.652C339.913 159.641 341.163 159.841 342.067 160.597C342.324 160.812 342.564 161.142 342.452 161.457C342.355 161.722 342.055 161.845 341.785 161.931C340.298 162.402 338.754 162.67 337.194 162.728C339.229 162.923 341.153 163.745 342.702 165.079C343.035 165.367 343.377 165.756 343.302 166.189C343.238 166.551 342.882 166.805 342.521 166.869C342.154 166.909 341.783 166.875 341.43 166.768L335.624 165.418C337.176 167.073 338.076 169.236 338.156 171.504C338.168 171.604 338.15 171.705 338.105 171.795C338.069 171.842 338.024 171.881 337.972 171.909C337.921 171.938 337.864 171.955 337.805 171.96C337.068 172.086 336.455 171.429 336.005 170.826C335.116 169.618 334.29 168.366 333.529 167.075C333.529 169.475 333.493 171.999 332.344 174.112C332.156 174.457 331.795 174.837 331.444 174.673C331.327 174.609 331.23 174.514 331.165 174.398C330.746 173.758 330.668 172.956 330.614 172.191C330.484 170.337 330.419 168.48 330.419 166.62C328.829 168.842 327.151 171.144 324.736 172.422C324.335 172.635 323.747 172.772 323.504 172.389C323.409 172.196 323.386 171.974 323.441 171.765C323.828 169.364 325.733 167.555 327.532 165.927C325.323 166.276 323.07 166.24 320.874 165.82C320.49 165.747 320.022 165.567 320.001 165.176C319.987 164.911 320.2 164.692 320.407 164.525C322.463 162.866 325.285 162.63 327.921 162.465C325.714 162.125 323.694 161.029 322.205 159.365C321.754 158.864 321.351 158.273 321.319 157.602C321.302 157.469 321.335 157.334 321.412 157.224C321.474 157.17 321.545 157.129 321.622 157.103C321.7 157.078 321.781 157.068 321.863 157.074C323.047 157.022 324.226 157.259 325.298 157.765C326.37 158.271 327.302 159.031 328.014 159.979C327.13 159.336 326.389 158.517 325.837 157.574C325.285 156.63 324.934 155.583 324.806 154.498C324.779 154.371 324.793 154.24 324.847 154.122C324.922 154.014 325.035 153.938 325.163 153.908C325.774 153.713 326.458 153.872 327.001 154.208C327.544 154.544 327.96 155.068 328.327 155.587C328.885 156.37 329.335 157.225 329.666 158.127C329.751 156.625 329.823 155.153 330.185 153.675Z" fill="#BCD6B3"/>
<path d="M330.236 161.68C329.726 162.03 329.365 162.558 329.223 163.16C329.136 163.539 329.149 163.972 329.389 164.281C329.649 164.617 330.102 164.731 330.525 164.777C331.117 164.862 331.72 164.811 332.29 164.627C332.573 164.535 332.835 164.385 333.058 164.186C333.281 163.988 333.461 163.746 333.586 163.475C333.814 162.924 333.719 162.23 333.286 161.824C332.501 161.104 331.079 161.107 330.236 161.68Z" fill="#BCD6B3"/>
</g>
<rect x="0.5" y="0.5" width="352" height="202" rx="19.5" stroke="#ECECEC"/>
</g>
<defs>
<filter id="filter0_i_2010_916" x="0" y="0" width="353" height="203" filterUnits="userSpaceOnUse" color-interpolation-filters="sRGB">
<feFlood flood-opacity="0" result="BackgroundImageFix"/>
<feBlend mode="normal" in="SourceGraphic" in2="BackgroundImageFix" result="shape"/>
<feColorMatrix in="SourceAlpha" type="matrix" values="0 0 0 0 0 0 0 0 0 0 0 0 0 0 0 0 0 0 127 0" result="hardAlpha"/>
<feOffset/>
<feGaussianBlur stdDeviation="2"/>
<feComposite in2="hardAlpha" operator="arithmetic" k2="-1" k3="1"/>
<feColorMatrix type="matrix" values="0 0 0 0 0 0 0 0 0 0 0 0 0 0 0 0 0 0 0.25 0"/>
<feBlend mode="normal" in2="shape" result="effect1_innerShadow_2010_916"/>
</filter>
<clipPath id="clip0_2010_916">
<rect width="353" height="203" rx="20" fill="white"/>
</clipPath>
</defs>
</svg>
