<svg width="353" height="203" viewBox="0 0 353 203" fill="none" xmlns="http://www.w3.org/2000/svg">
<g filter="url(#filter0_i_2010_837)">
<g clip-path="url(#clip0_2010_837)">
<rect width="353" height="203" rx="20" fill="#4AAB5A"/>
<path fill-rule="evenodd" clip-rule="evenodd" d="M70.1563 68.9433C76.5553 67.672 84.7696 70.9926 88.7194 65.8008C92.7236 60.5375 89.861 52.7601 87.0046 46.7969C84.5403 41.6525 79.8293 38.114 74.4917 36.0989C69.8014 34.3283 64.9628 35.7068 60.0316 36.6142C53.953 37.7328 46.8777 37.0869 42.9947 41.8949C38.6615 47.2604 37.2775 55.171 39.8923 61.5512C42.3896 67.6446 49.0984 70.8385 55.4971 72.4014C60.5668 73.6397 65.0372 69.9604 70.1563 68.9433Z" fill="#5CB865"/>
<path fill-rule="evenodd" clip-rule="evenodd" d="M209.718 78.5928C213.561 77.8291 218.495 79.8237 220.868 76.7052C223.273 73.5438 221.554 68.8723 219.838 65.2905C218.358 62.2004 215.528 60.075 212.322 58.8647C209.505 57.8011 206.598 58.6292 203.636 59.1742C199.985 59.8461 195.736 59.4581 193.403 62.3461C190.8 65.5689 189.969 70.3204 191.54 74.1527C193.04 77.8127 197.069 79.7311 200.913 80.6699C203.958 81.4136 206.643 79.2037 209.718 78.5928Z" fill="#5CB865"/>
<path d="M297.949 89.4386H297.923C288.973 87.4149 288.589 82.9852 288.589 82.9852C287.396 77.7728 288.733 66.3714 292.364 65.9682C295.996 65.5651 295.847 71.7592 295.847 71.7592C295.847 71.7592 299.204 64.4681 302.028 65.031C304.852 65.5939 306.473 68.8847 306.253 72.885C306.253 72.885 308.003 66.6018 311.912 67.8532C315.821 69.1046 314.856 81.5427 309.914 86.2185C309.914 86.2185 307.163 90.9309 299.217 89.669C298.101 93.2196 298.427 97.0676 300.125 100.379C300.648 93.9599 307.014 89.5433 309.736 93.4755C312.793 97.8895 303.641 100.934 300.88 101.738C301.628 102.925 302.532 104.006 303.568 104.95C304.188 105.513 303.372 106.537 302.747 105.966C299.199 102.741 297.167 98.544 297.28 93.719C297.315 92.269 297.54 90.8299 297.949 89.4386Z" fill="#5CB565"/>
<path d="M286.369 87.7263C290.955 84.2417 298.135 99.1564 298.135 99.1564C289.478 100.117 281.783 91.2134 286.369 87.7263Z" fill="#5CB565"/>
<path d="M314.799 177.265C314.664 177.056 314.49 176.876 314.285 176.734C312.757 175.432 311.249 174.106 309.683 172.854C308.271 171.705 306.934 170.467 305.682 169.147C305.314 168.775 304.977 168.374 304.675 167.948C304.371 167.54 304.163 167.069 304.067 166.57C303.97 166.07 303.989 165.556 304.12 165.065C304.243 164.559 304.44 164.073 304.704 163.623C305.118 162.948 305.479 162.239 305.872 161.564C306.487 160.527 307.215 159.56 308.043 158.681C308.448 158.308 308.936 158.037 309.468 157.89C309.561 157.864 309.659 157.856 309.755 157.868C309.851 157.88 309.943 157.912 310.027 157.96C310.274 158.085 310.497 158.252 310.686 158.454C311.411 159.134 312.02 159.912 312.674 160.654C313.329 161.395 313.917 162.116 314.571 162.829C315.773 164.147 317.057 165.378 318.221 166.746C318.238 166.767 318.259 166.785 318.283 166.799C318.358 166.821 318.436 166.83 318.515 166.828C318.535 166.828 318.569 166.733 318.56 166.684C318.549 166.576 318.526 166.47 318.494 166.367C318.121 164.987 317.628 163.648 317.169 162.297C316.185 159.384 315.195 156.475 314.198 153.569C313.944 152.816 313.767 152.039 313.668 151.25C313.608 150.702 313.7 150.148 313.933 149.648C314.158 148.99 314.63 148.444 315.251 148.124C315.328 148.095 315.399 148.05 315.458 147.992C316.042 147.255 316.899 146.926 317.695 146.501C318.034 146.324 318.382 146.168 318.722 145.991C319.527 145.572 320.389 145.272 321.282 145.101C322.15 144.923 323.05 144.981 323.887 145.27C325.04 145.682 326.015 146.474 326.65 147.515C327.352 148.564 327.909 149.701 328.307 150.896C328.568 151.72 328.78 152.544 328.966 153.368C329.293 154.809 329.513 156.271 329.707 157.738C329.935 159.443 330.047 161.16 330.391 162.849C330.623 162.849 330.673 162.668 330.735 162.528C331.149 161.576 331.605 160.633 331.977 159.669C332.483 158.397 332.951 157.112 333.419 155.826C333.584 155.365 333.816 154.929 334.107 154.533C334.233 154.357 334.396 154.209 334.585 154.101C334.774 153.992 334.983 153.925 335.2 153.903C335.613 153.843 336.033 153.89 336.422 154.039C337.243 154.361 338.038 154.745 338.8 155.188C339.256 155.448 339.703 155.719 340.146 156.012C340.866 156.409 341.425 157.043 341.727 157.805C342.03 158.567 342.056 159.409 341.803 160.188C341.687 160.6 341.596 161.041 341.463 161.457C341.12 162.496 340.693 163.505 340.188 164.476C339.583 165.675 338.924 166.853 338.286 168.035C338.202 168.142 338.153 168.273 338.145 168.409C338.416 168.367 338.68 168.287 338.928 168.171L342.876 165.786C342.918 165.749 342.964 165.717 343.013 165.691C343.524 165.486 343.994 165.192 344.4 164.822C344.527 164.725 344.666 164.646 344.815 164.587C345.101 164.443 345.426 164.397 345.741 164.455C346.056 164.513 346.343 164.672 346.559 164.908C346.876 165.245 347.154 165.617 347.387 166.016C348.203 167.51 348.909 169.06 349.5 170.654C349.955 171.923 349.578 173.019 348.878 174.065C348.327 174.888 347.52 175.498 346.952 176.309C346.343 176.602 346.02 177.236 345.424 177.545C345.101 177.755 344.791 177.983 344.496 178.229C344.233 178.421 343.956 178.595 343.667 178.748C343.458 178.819 343.283 178.966 343.178 179.16C343.091 179.337 342.847 179.432 342.677 179.572C342.662 179.592 342.652 179.616 342.647 179.641C342.643 179.666 342.645 179.691 342.652 179.716C342.664 179.739 342.682 179.759 342.704 179.773C342.725 179.787 342.751 179.796 342.777 179.798C343.212 179.747 343.641 179.651 344.057 179.51C345.299 179.156 346.542 178.805 347.785 178.439C348.375 178.294 348.986 178.251 349.591 178.311C349.784 178.318 349.973 178.372 350.141 178.468C350.308 178.564 350.449 178.7 350.552 178.863C350.908 179.386 351.197 179.952 351.409 180.548C351.834 181.82 352.157 183.125 352.374 184.448C352.569 185.527 352.71 186.611 352.834 187.698C352.85 187.806 352.881 187.911 352.925 188.011C353.025 188.298 353.025 188.61 352.925 188.897C352.726 189.699 352.319 190.436 351.745 191.034C351.021 191.795 350.183 192.438 349.259 192.941C347.06 194.149 344.766 195.178 342.4 196.018C339.815 196.957 337.201 197.839 334.604 198.745C334.471 198.786 334.339 198.819 334.21 198.872C334.162 198.883 334.118 198.905 334.079 198.935C334.04 198.965 334.009 199.003 333.987 199.047C333.965 199.091 333.952 199.139 333.951 199.187C333.949 199.236 333.959 199.285 333.978 199.33C334.115 199.832 334.268 200.33 334.413 200.829C335.093 203.174 335.771 205.517 336.447 207.86C336.928 209.507 337.4 211.184 337.889 212.839C338.75 215.755 339.624 218.672 340.49 221.588C340.531 221.72 340.56 221.856 340.598 222C340.755 222.523 340.867 223.034 340.217 223.326C339.923 223.96 339.367 224.026 338.759 223.993C338.373 223.993 337.984 223.993 337.599 223.993C337.265 223.998 336.937 223.907 336.654 223.731C336.371 223.555 336.145 223.301 336.004 223.001C335.825 222.662 335.667 222.313 335.532 221.954C335.015 220.364 334.51 218.77 334.016 217.172C333.647 215.966 333.299 214.755 332.955 213.544C332.4 211.591 331.915 209.623 331.464 207.65C330.992 205.596 330.518 203.536 330.043 201.471C329.977 201.179 329.956 200.874 329.877 200.586C329.799 200.298 329.695 200.236 329.393 200.318C328.597 200.532 327.802 200.767 327.007 200.985C325.525 201.413 324.021 201.755 322.5 202.011C321.087 202.233 319.683 202.501 318.246 202.608C317.417 202.67 316.589 202.761 315.785 202.839C314.794 202.911 313.798 202.911 312.807 202.839C312.115 202.851 311.428 202.71 310.798 202.427C310.021 202.019 309.28 201.545 308.586 201.01C308.1 200.598 307.727 200.071 307.5 199.478C306.911 198.087 306.504 196.626 306.287 195.132C306.129 194.107 305.984 193.073 305.843 192.047C305.765 191.496 305.959 190.96 305.976 190.4C305.984 190.319 306.02 190.243 306.079 190.186C306.576 189.774 307.049 189.284 307.761 189.226C307.844 189.226 307.927 189.226 308.01 189.226C309.252 189.193 310.495 189.049 311.709 188.905C311.901 188.89 312.093 188.89 312.285 188.905C313.254 188.95 314.207 188.728 315.184 188.703C315.595 188.659 316.002 188.587 316.402 188.485C315.864 188.402 315.503 188.332 315.139 188.291C314.372 188.209 313.598 188.168 312.84 188.052C312.082 187.937 311.183 187.871 310.375 187.785C309.617 187.706 308.859 187.57 308.084 187.558C307.036 187.525 305.998 187.349 304.998 187.035C303.756 186.668 303.064 185.618 303.002 184.292C302.988 183.6 303.056 182.909 303.205 182.232C303.512 180.673 303.9 179.13 304.369 177.611C304.451 177.323 304.592 177.051 304.696 176.767C304.909 176.234 305.296 175.788 305.794 175.498C306.118 175.268 306.495 175.123 306.89 175.076C307.285 175.028 307.685 175.08 308.055 175.226C309.683 175.741 311.324 176.215 312.923 176.82C313.208 176.927 313.494 177.03 313.751 177.162C314.045 177.317 314.376 177.389 314.708 177.368C314.745 177.434 314.778 177.5 314.861 177.409L314.799 177.265Z" fill="#65B866"/>
<path d="M14.0595 93.1885C13.7296 92.1757 13.4058 91.1604 13.072 90.1505C12.4813 88.3566 11.9553 86.537 11.0056 84.888C10.2565 83.5869 9.44156 82.3343 8.17014 81.4616C6.29246 80.1737 4.50722 80.4136 3.01137 82.1221C1.75247 83.5606 1.27156 85.2719 1.20442 87.1263C1.1106 89.7606 1.69485 92.2915 2.52449 94.7612C3.14485 96.6088 3.90887 98.4084 4.60058 100.231C4.73343 100.579 4.83481 100.939 4.9519 101.292C4.89975 101.319 4.84796 101.343 4.7971 101.368C4.47502 100.78 4.15903 100.188 3.82827 99.6041C3.02538 98.1814 2.26825 96.7289 1.38449 95.3559C0.996498 94.756 0.397145 94.2501 -0.196544 93.8276C-1.88325 92.6179 -3.9733 93.1141 -5.01205 94.9218C-5.74263 96.1941 -5.92504 97.6002 -5.8571 99.0327C-5.71398 101.986 -4.88434 104.75 -3.53467 107.38C-1.88928 110.59 0.0343531 113.649 2.21412 116.522C2.45523 116.853 2.67932 117.196 2.88553 117.55C3.2347 118.119 3.2261 118.334 2.74014 118.787C1.92109 119.548 1.07536 120.28 0.242671 121.024C-0.751245 121.918 -1.75629 122.801 -2.72861 123.718C-2.98241 123.976 -3.18675 124.278 -3.33152 124.61C-3.72103 125.432 -3.26045 126.233 -2.35874 126.174C-1.71904 126.134 -1.09885 125.938 -0.552046 125.604C0.702012 124.794 1.88081 123.868 3.08811 122.981C3.92546 122.364 4.75876 121.737 5.59034 121.12C5.71935 121.025 5.84788 120.949 6.03483 120.827C6.36644 121.277 6.6819 121.706 7.00674 122.125C9.28977 125.056 12.2285 127.41 15.5866 128.999C17.6257 129.963 19.7644 130.279 21.9716 129.615C23.2293 129.225 24.3493 128.484 25.1998 127.478C26.3901 126.122 26.4578 124.46 25.4842 122.841C24.4601 121.117 22.8503 119.819 20.9486 119.184C19.87 118.8 18.7317 118.576 17.6384 118.221C16.7299 117.924 15.8444 117.552 14.9534 117.201C14.5717 117.05 14.5361 116.764 14.8219 116.512C15.1078 116.259 15.4335 115.948 15.7805 115.889C16.5505 115.743 17.336 115.696 18.118 115.748C19.8238 115.903 21.5184 116.245 23.2269 116.352C24.5292 116.433 25.8363 116.379 27.1273 116.19C28.7565 115.952 30.0956 115.087 31.0657 113.732C32.6706 111.493 31.3537 108.784 29.4604 107.893C28.5346 107.437 27.4895 107.282 26.4713 107.45C25.106 107.679 23.7513 107.974 22.3835 108.189C21.6888 108.299 20.9848 108.339 20.2821 108.308C19.9918 108.295 19.5817 108.067 19.462 107.821C19.2731 107.435 19.491 107.004 19.8406 106.746C20.1215 106.52 20.4467 106.355 20.7954 106.262C22.3796 105.927 23.9697 105.619 25.5658 105.336C27.6143 104.97 29.647 104.572 31.537 103.642C33.3095 102.768 34.8188 101.613 35.8556 99.8866C36.2973 99.1578 36.5704 98.3393 36.6546 97.4912C36.8886 95.1797 34.7761 92.9541 32.3718 93.1803C30.5218 93.3485 28.867 94.0358 27.2502 94.8721C25.9783 95.5282 24.7322 96.2328 23.4524 96.8728C22.9952 97.0825 22.5121 97.2307 22.016 97.3136C21.4786 97.4188 21.2076 97.1129 21.4649 96.6408C21.8131 95.9938 22.2374 95.3907 22.7288 94.8444C23.9863 93.4607 25.3869 92.1985 26.5644 90.7523C28.742 88.0781 29.8757 84.9806 29.7923 81.4977C29.7508 79.793 29.338 78.1786 28.3746 76.7189C26.8395 74.3966 24.2787 73.4265 21.7145 74.4948C17.6019 76.2058 15.0394 79.2112 14.7416 83.8086C14.5831 86.2118 14.5826 88.6242 14.486 91.0276C14.4573 91.7453 14.3332 92.4576 14.2523 93.1719L14.0595 93.1885Z" fill="#308B46"/>
<path d="M208.318 23.534C208.318 23.534 201.875 16.515 201.466 6.91695C201.056 -2.68104 202.104 -11.9261 208.067 -10.5518C214.03 -9.17752 212.676 9.5851 212.676 9.5851C212.676 9.5851 218.152 -3.54054 227.573 -9.68571C236.993 -15.8309 245.209 -13.8611 243.369 -6.34681C241.528 1.16744 224.858 15.8189 224.858 15.8189C224.858 15.8189 241.26 10.2886 243.995 16.9877C246.73 23.6868 233.6 28.3875 226.029 27.9221C218.459 27.4567 213.2 27.2101 208.318 23.534Z" fill="#308B46"/>
<path fill-rule="evenodd" clip-rule="evenodd" d="M116.684 144.909C120.196 143.443 123.05 137.562 126.422 139.327C129.713 141.049 126.81 146.57 126.964 150.289C127.047 152.306 127.555 154.268 127.121 156.24C126.74 157.973 125.467 159.276 124.642 160.847C123.779 162.491 123.362 164.32 122.143 165.72C120.599 167.493 119.022 170.201 116.684 169.988C114.267 169.768 114.107 165.425 111.769 164.775C108.126 163.761 103.693 167.768 100.645 165.524C98.1104 163.659 98.9596 159.148 100.173 156.24C101.322 153.486 104.76 152.657 106.886 150.568C108.351 149.13 108.943 146.908 110.72 145.882C112.495 144.857 114.792 145.699 116.684 144.909Z" fill="#5AB565"/>
<path fill-rule="evenodd" clip-rule="evenodd" d="M208.363 179.992C204.661 180.203 202.271 176.103 199.663 173.44C197.484 171.215 195.434 168.879 194.545 165.882C193.671 162.936 193.928 159.844 194.751 156.883C195.604 153.812 196.353 149.899 199.304 148.758C202.332 147.587 205.159 152.124 208.363 151.617C212.713 150.93 216.197 142.899 219.749 145.526C223.308 148.158 218.217 153.967 217.479 158.358C217.153 160.301 216.788 162.098 216.634 164.062C216.411 166.934 217.703 169.937 216.379 172.488C214.645 175.828 212.093 179.78 208.363 179.992Z" fill="#308B46"/>
<path fill-rule="evenodd" clip-rule="evenodd" d="M128.363 104.992C124.661 105.203 122.271 101.103 119.663 98.44C117.484 96.2155 115.434 93.8789 114.545 90.8821C113.671 87.9357 113.928 84.8444 114.751 81.883C115.604 78.8118 116.353 74.8994 119.304 73.7582C122.332 72.5866 125.159 77.1238 128.363 76.6172C132.713 75.9295 136.197 67.8993 139.749 70.526C143.308 73.1577 138.217 78.9668 137.479 83.3582C137.153 85.3011 136.788 87.0976 136.634 89.0622C136.411 91.9337 137.703 94.9368 136.379 97.4878C134.645 100.828 132.093 104.78 128.363 104.992Z" fill="#308B46"/>
</g>
<rect x="0.5" y="0.5" width="352" height="202" rx="19.5" stroke="#ECECEC"/>
</g>
<defs>
<filter id="filter0_i_2010_837" x="0" y="0" width="353" height="203" filterUnits="userSpaceOnUse" color-interpolation-filters="sRGB">
<feFlood flood-opacity="0" result="BackgroundImageFix"/>
<feBlend mode="normal" in="SourceGraphic" in2="BackgroundImageFix" result="shape"/>
<feColorMatrix in="SourceAlpha" type="matrix" values="0 0 0 0 0 0 0 0 0 0 0 0 0 0 0 0 0 0 127 0" result="hardAlpha"/>
<feOffset/>
<feGaussianBlur stdDeviation="2"/>
<feComposite in2="hardAlpha" operator="arithmetic" k2="-1" k3="1"/>
<feColorMatrix type="matrix" values="0 0 0 0 0 0 0 0 0 0 0 0 0 0 0 0 0 0 0.25 0"/>
<feBlend mode="normal" in2="shape" result="effect1_innerShadow_2010_837"/>
</filter>
<clipPath id="clip0_2010_837">
<rect width="353" height="203" rx="20" fill="white"/>
</clipPath>
</defs>
</svg>
