<svg width="58" height="58" viewBox="0 0 58 58" fill="none" xmlns="http://www.w3.org/2000/svg">
<path d="M29.9058 51.7649C33.9824 51.7087 38.1152 51.3005 42.1296 49.6053C43.3751 49.0817 44.9253 49.0521 46.8186 49.4042C48.3895 49.6941 49.9722 50.197 51.617 50.7206L52.6909 51.0608C53.2837 51.2521 53.9165 51.2841 54.5255 51.1535C55.1346 51.0229 55.6986 50.7343 56.1609 50.3167C56.6231 49.8991 56.9674 49.3672 57.159 48.7745C57.3506 48.1818 57.3829 47.549 57.2526 46.9399C57.1146 46.2752 56.9736 45.6155 56.8296 44.9607C56.4604 43.3804 56.1565 41.7855 55.9184 40.1801C55.6196 37.9525 55.6463 36.0798 56.1699 34.6184C57.1461 31.8879 57.6786 28.9473 57.6786 25.8854C57.6786 19.0212 54.9522 12.438 50.0991 7.58376C45.2459 2.72947 38.6633 0.00156896 31.7991 0C23.5335 0 16.9927 3.50858 12.564 8.93121C8.38688 14.0491 6.14151 20.7882 5.93146 27.7699C4.06949 29.3654 2.57517 31.3454 1.55125 33.5735C0.527338 35.8016 -0.00187498 38.225 4.99128e-06 40.6771C4.99128e-06 42.4314 0.266255 44.1265 0.760297 45.724C1.37267 47.6913 0.955547 49.9958 0.408255 52.8891C0.292893 53.4924 0.333688 54.1152 0.526762 54.6984C0.719837 55.2815 1.05878 55.8056 1.5114 56.2209C1.96403 56.6361 2.5153 56.9288 3.11286 57.0711C3.71042 57.2133 4.33444 57.2005 4.92563 57.0337C7.4698 56.3385 9.31876 55.9776 11.1381 56.6491C12.9723 57.3207 14.9485 57.6875 17.0075 57.6875C19.4574 57.6892 21.8787 57.1607 24.1051 56.1384C26.3315 55.1161 28.3104 53.6241 29.9058 51.7649ZM17.0075 28.1042C18.8445 28.1052 20.6589 28.5087 22.3232 29.2864C23.9875 30.064 25.4611 31.1969 26.6405 32.6054C27.8198 34.0138 28.6762 35.6636 29.1493 37.4386C29.6225 39.2136 29.7009 41.0708 29.3792 42.8794C29.0574 44.688 28.3432 46.4041 27.2869 47.907C26.2305 49.4099 24.8577 50.6631 23.2649 51.5783C21.6722 52.4936 19.8982 53.0487 18.0678 53.2046C16.2375 53.3605 14.3952 53.1135 12.6705 52.4808C9.90746 51.4661 7.25384 51.8685 5.01142 52.4217C5.44926 50.0372 5.84271 47.1292 4.99959 44.4075C4.62786 43.1989 4.43841 41.9416 4.43751 40.6771C4.4352 38.7248 4.88864 36.7989 5.76173 35.0527C6.63482 33.3066 7.90346 31.7883 9.46667 30.6187C11.6402 28.9833 14.2874 28.1005 17.0075 28.1042Z" fill="#3FB863"/>
</svg>
