<svg width="60" height="46" viewBox="0 0 60 46" fill="none" xmlns="http://www.w3.org/2000/svg">
<path d="M56.2083 25.4663H50.2917C49.4535 25.4663 48.7514 25.1823 48.1853 24.6143C47.6193 24.0463 47.3353 23.3442 47.3333 22.508C47.3314 21.6718 47.6154 20.9697 48.1853 20.4017C48.7553 19.8337 49.4574 19.5497 50.2917 19.5497H56.2083C57.0465 19.5497 57.7496 19.8337 58.3176 20.4017C58.8856 20.9697 59.1686 21.6718 59.1667 22.508C59.1647 23.3442 58.8807 24.0473 58.3147 24.6173C57.7486 25.1873 57.0465 25.4703 56.2083 25.4663ZM43.1917 36.708C43.6847 36.0177 44.3257 35.6233 45.1146 35.5247C45.9035 35.426 46.6431 35.6233 47.3333 36.1163L52.0667 39.6663C52.7569 40.1594 53.1514 40.8004 53.25 41.5892C53.3486 42.3781 53.1514 43.1177 52.6583 43.808C52.1653 44.4983 51.5243 44.8927 50.7354 44.9913C49.9465 45.0899 49.2069 44.8927 48.5167 44.3997L43.7833 40.8497C43.0931 40.3566 42.6986 39.7156 42.6 38.9267C42.5014 38.1378 42.6986 37.3983 43.1917 36.708ZM52.0667 5.34965L47.3333 8.89965C46.6431 9.39271 45.9035 9.58993 45.1146 9.49132C44.3257 9.39271 43.6847 8.99826 43.1917 8.30799C42.6986 7.61771 42.5014 6.87812 42.6 6.08924C42.6986 5.30035 43.0931 4.65938 43.7833 4.16632L48.5167 0.616319C49.2069 0.123263 49.9465 -0.0739583 50.7354 0.0246528C51.5243 0.123264 52.1653 0.517709 52.6583 1.20799C53.1514 1.89826 53.3486 2.63785 53.25 3.42674C53.1514 4.21563 52.7569 4.8566 52.0667 5.34965ZM8.875 31.383H5.91667C4.28958 31.383 2.89719 30.8041 1.7395 29.6464C0.581806 28.4888 0.00197222 27.0954 0 25.4663V19.5497C0 17.9226 0.579834 16.5302 1.7395 15.3725C2.89917 14.2148 4.29156 13.635 5.91667 13.633H17.75L28.0302 7.42049C29.0163 6.82882 30.0153 6.82882 31.027 7.42049C32.0387 8.01215 32.5436 8.875 32.5417 10.009V35.0069C32.5417 36.141 32.0358 37.0038 31.024 37.5955C30.0123 38.1872 29.0143 38.1872 28.0302 37.5955L17.75 31.383H14.7917V40.258C14.7917 41.0962 14.5077 41.7993 13.9397 42.3673C13.3717 42.9353 12.6696 43.2183 11.8333 43.2163C10.9971 43.2143 10.295 42.9303 9.727 42.3643C9.159 41.7983 8.875 41.0962 8.875 40.258V31.383ZM35.5 32.4184V12.5976C36.8313 13.7809 37.9041 15.2236 38.7187 16.9256C39.5332 18.6276 39.9395 20.4884 39.9375 22.508C39.9355 24.5275 39.5283 26.3893 38.7157 28.0933C37.9032 29.7973 36.8313 31.239 35.5 32.4184Z" fill="#F4B364"/>
</svg>
