<svg width="54" height="60" viewBox="0 0 54 60" fill="none" xmlns="http://www.w3.org/2000/svg">
<path d="M19.525 43.1917L23.6667 38.9021L17.3063 32.5417L23.6667 26.1812L19.525 21.8917L8.875 32.5417L19.525 43.1917ZM33.725 43.1917L44.375 32.5417L33.725 21.8917L29.5833 26.1812L35.9437 32.5417L29.5833 38.9021L33.725 43.1917ZM5.91667 59.1667C4.28958 59.1667 2.89719 58.5878 1.7395 57.4301C0.581806 56.2724 0.00197222 54.8791 0 53.25V11.8333C0 10.2062 0.579834 8.81386 1.7395 7.65617C2.89917 6.49847 4.29156 5.91864 5.91667 5.91667H18.3417C18.9826 4.14167 20.0555 2.71181 21.5603 1.62708C23.0651 0.542361 24.7534 0 26.625 0C28.4966 0 30.1858 0.542361 31.6926 1.62708C33.1994 2.71181 34.2713 4.14167 34.9083 5.91667H47.3333C48.9604 5.91667 50.3538 6.4965 51.5135 7.65617C52.6731 8.81583 53.252 10.2082 53.25 11.8333V53.25C53.25 54.8771 52.6712 56.2705 51.5135 57.4301C50.3558 58.5898 48.9624 59.1686 47.3333 59.1667H5.91667ZM26.625 9.61458C27.266 9.61458 27.7965 9.40454 28.2166 8.98446C28.6367 8.56437 28.8457 8.03483 28.8438 7.39583C28.8418 6.75683 28.6317 6.22729 28.2136 5.80721C27.7955 5.38713 27.266 5.17708 26.625 5.17708C25.984 5.17708 25.4545 5.38713 25.0364 5.80721C24.6183 6.22729 24.4082 6.75683 24.4062 7.39583C24.4043 8.03483 24.6143 8.56536 25.0364 8.98742C25.4584 9.40947 25.988 9.61853 26.625 9.61458Z" fill="#2844DB"/>
</svg>
