<svg width="58" height="60" viewBox="0 0 58 60" fill="none" xmlns="http://www.w3.org/2000/svg">
<path d="M40.183 7.25325e-05H21.9686C17.4689 0.00366413 13.1453 1.74932 9.90452 4.87097C6.66373 7.99263 4.75745 12.2478 4.58542 16.7442H2.21875C1.6303 16.7442 1.06595 16.978 0.649857 17.3941C0.23376 17.8102 0 18.3745 0 18.963C0 19.5514 0.23376 20.1158 0.649857 20.5319C1.06595 20.948 1.6303 21.1817 2.21875 21.1817H4.55583V38.0147H2.3075C1.71905 38.0147 1.1547 38.2484 0.738607 38.6645C0.322511 39.0806 0.0887499 39.645 0.0887499 40.2334C0.0887499 40.8219 0.322511 41.3862 0.738607 41.8023C1.1547 42.2184 1.71905 42.4522 2.3075 42.4522H4.67417C4.85003 46.9446 6.75844 51.1945 9.99923 54.3106C13.24 57.4268 17.5614 59.1671 22.0573 59.1667H40.2718C42.5597 59.1671 44.8253 58.7166 46.939 57.841C49.0527 56.9654 50.9732 55.6817 52.5906 54.0635C54.208 52.4453 55.4906 50.5242 56.3651 48.41C57.2397 46.2959 57.6891 44.0301 57.6875 41.7422V17.4247C57.6836 15.1308 57.2276 12.8602 56.3456 10.7427C55.4636 8.62519 54.1728 6.70231 52.5471 5.08402C50.9214 3.46572 48.9926 2.18375 46.8711 1.31141C44.7496 0.439065 42.4769 -0.00654019 40.183 7.25325e-05ZM32.2577 11.6263C33.6146 11.6255 34.9548 11.9261 36.1813 12.5064C37.4079 13.0867 38.4903 13.9322 39.3502 14.9818C40.2102 16.0314 40.8263 17.2589 41.154 18.5757C41.4817 19.8925 41.5128 21.2656 41.2451 22.5958C40.9786 23.9254 40.4205 25.1793 39.6111 26.2672C38.8018 27.3552 37.7612 28.2501 36.5644 28.8876C35.3675 29.5251 34.0442 29.8892 32.6898 29.9537C31.3353 30.0183 29.9834 29.7817 28.7313 29.2609C27.3399 28.6806 26.1129 27.7662 25.1591 26.5987C24.2053 25.4311 23.554 24.0464 23.263 22.5672C22.9719 21.0879 23.05 19.5597 23.4904 18.1178C23.9308 16.6759 24.7199 15.3649 25.7878 14.3007C27.5059 12.5887 29.8323 11.6271 32.2577 11.6263ZM42.6089 45.8542C42.0204 45.8542 41.4561 45.6205 41.04 45.2044C40.6239 44.7883 40.3901 44.2239 40.3901 43.6355C40.3901 40.0559 35.923 36.9792 32.2577 36.9792C28.5923 36.9792 24.1578 39.9376 24.1578 43.6355C24.1578 44.2239 23.924 44.7883 23.5079 45.2044C23.0918 45.6205 22.5274 45.8542 21.939 45.8542C21.3506 45.8542 20.7862 45.6205 20.3701 45.2044C19.954 44.7883 19.7203 44.2239 19.7203 43.6355C19.7203 37.2751 26.3469 32.5417 32.2577 32.5417C38.1743 32.5417 44.8247 37.2751 44.8247 43.6355C44.817 44.2216 44.5808 44.7815 44.1663 45.1959C43.7519 45.6104 43.1949 45.8466 42.6089 45.8542Z" fill="#546FFF"/>
</svg>
