<svg width="54" height="54" viewBox="0 0 54 54" fill="none" xmlns="http://www.w3.org/2000/svg">
<path fill-rule="evenodd" clip-rule="evenodd" d="M0 8.875C0 6.5212 0.935042 4.26381 2.59943 2.59943C4.26381 0.935042 6.5212 0 8.875 0H44.375C46.7288 0 48.9862 0.935042 50.6506 2.59943C52.315 4.26381 53.25 6.5212 53.25 8.875V44.375C53.25 46.7288 52.315 48.9862 50.6506 50.6506C48.9862 52.315 46.7288 53.25 44.375 53.25H8.875C6.5212 53.25 4.26381 52.315 2.59943 50.6506C0.935042 48.9862 0 46.7288 0 44.375V8.875ZM29.5833 14.7917C29.5833 14.0071 29.2717 13.2546 28.7169 12.6998C28.1621 12.145 27.4096 11.8333 26.625 11.8333C25.8404 11.8333 25.0879 12.145 24.5331 12.6998C23.9783 13.2546 23.6667 14.0071 23.6667 14.7917V38.4583C23.6667 39.2429 23.9783 39.9954 24.5331 40.5502C25.0879 41.105 25.8404 41.4167 26.625 41.4167C27.4096 41.4167 28.1621 41.105 28.7169 40.5502C29.2717 39.9954 29.5833 39.2429 29.5833 38.4583V14.7917ZM17.75 23.6667C17.75 22.8821 17.4383 22.1296 16.8835 21.5748C16.3287 21.02 15.5763 20.7083 14.7917 20.7083C14.0071 20.7083 13.2546 21.02 12.6998 21.5748C12.145 22.1296 11.8333 22.8821 11.8333 23.6667V38.4583C11.8333 39.2429 12.145 39.9954 12.6998 40.5502C13.2546 41.105 14.0071 41.4167 14.7917 41.4167C15.5763 41.4167 16.3287 41.105 16.8835 40.5502C17.4383 39.9954 17.75 39.2429 17.75 38.4583V23.6667ZM41.4167 32.5417C41.4167 31.7571 41.105 31.0046 40.5502 30.4498C39.9954 29.895 39.2429 29.5833 38.4583 29.5833C37.6737 29.5833 36.9213 29.895 36.3665 30.4498C35.8117 31.0046 35.5 31.7571 35.5 32.5417V38.4583C35.5 39.2429 35.8117 39.9954 36.3665 40.5502C36.9213 41.105 37.6737 41.4167 38.4583 41.4167C39.2429 41.4167 39.9954 41.105 40.5502 40.5502C41.105 39.9954 41.4167 39.2429 41.4167 38.4583V32.5417Z" fill="#0D7F5B"/>
</svg>
