<svg width="17" height="19" viewBox="0 0 17 19" fill="none" xmlns="http://www.w3.org/2000/svg">
<path d="M13.5 5.40202C13.5 6.90202 13 8.90202 10.6 9.70202C11.3 8.00202 11.4 6.30202 10.9 4.70202C10.2 2.60202 7.9 1.00202 6.3 0.102019C5.9 -0.197981 5.2 0.202019 5.3 0.802019C5.3 1.90202 5 3.50202 3.3 5.20202C1.1 7.40202 0 9.70202 0 11.902C0 14.802 2 18.402 6 18.402C2 14.402 5 10.902 5 10.902C5.8 16.802 10 18.402 12 18.402C13.7 18.402 17 17.202 17 12.002C17 8.90202 15.7 6.50202 14.6 5.10202C14.3 4.60202 13.6 4.90202 13.5 5.40202Z" fill="#FF1500"/>
</svg>
